<svg version="1.1" id="Layer_1" xmlns="http://www.w3.org/2000/svg" xmlns:xlink="http://www.w3.org/1999/xlink" x="0px" y="0px"
	 width="100%" viewBox="0 0 512 512" enable-background="new 0 0 512 512" xml:space="preserve">
<path fill="#000000" opacity="1.000000" stroke="none" 
	d="
M279.000000,513.000000 
	C273.311951,513.000000 267.623932,513.000000 261.492004,512.580811 
	C261.366425,509.377502 261.955536,506.593933 261.961517,503.809082 
	C262.027802,472.866730 262.007141,441.924194 262.000854,410.981689 
	C261.999878,406.157715 262.383179,401.271179 261.694641,396.543793 
	C261.454041,394.891846 258.614319,392.678833 256.786530,392.498779 
	C255.357498,392.357971 253.169785,394.696472 252.231033,396.427795 
	C251.458176,397.853088 252.000153,400.004211 251.999863,401.833649 
	C251.994766,433.607941 251.950272,465.382324 252.040771,497.156372 
	C252.055817,502.438446 252.665237,507.718842 253.000000,513.000000 
	C247.645065,513.000000 242.290146,513.000000 236.399933,512.561035 
	C237.286819,495.286224 238.665634,478.446625 240.148575,461.616180 
	C240.948441,452.538300 241.981949,443.481201 242.810562,434.405609 
	C243.896332,422.513611 244.962982,410.618622 245.859238,398.711487 
	C246.089340,395.654541 245.653687,392.338745 241.516449,392.193420 
	C237.749588,392.061066 236.398178,394.684204 236.091141,398.037506 
	C235.396912,405.619843 234.632645,413.196472 234.014420,420.784973 
	C232.910950,434.329620 231.873383,447.879730 230.846710,461.430481 
	C229.544418,478.618805 228.280487,495.810028 227.000000,513.000000 
	C220.312363,513.000000 213.624710,513.000000 206.522827,512.649780 
	C207.403900,509.335022 209.271088,506.486359 209.899689,503.386536 
	C213.388550,486.181671 216.696533,468.937561 219.834152,451.664703 
	C223.085938,433.763367 226.165298,415.828644 229.020676,397.860931 
	C229.282623,396.212646 227.372498,394.219177 226.470993,392.386017 
	C224.600449,393.453705 222.656204,394.416748 220.903244,395.651337 
	C220.361115,396.033173 220.249283,397.136505 220.093155,397.939178 
	C217.693008,410.278442 215.222748,422.605133 212.958527,434.969482 
	C209.026566,456.441101 205.233353,477.938110 201.363663,499.421143 
	C200.516098,504.126495 199.311523,508.851715 203.000000,513.000000 
	C135.739822,513.000000 68.479645,513.000000 1.000000,513.000000 
	C1.000000,446.312592 1.000000,379.624969 1.410749,312.504120 
	C7.856958,311.719055 13.971365,311.865448 19.913404,310.923981 
	C39.490891,307.822174 59.019119,304.400360 78.535080,300.926300 
	C82.989632,300.133331 81.997597,296.248016 81.842857,293.231018 
	C81.664276,289.749237 79.441223,290.196747 76.831009,290.715637 
	C59.948170,294.071747 43.019402,297.196503 26.133860,300.539398 
	C17.725126,302.204132 9.376058,304.170227 1.000000,306.000000 
	C1.000000,299.978851 1.000000,293.957703 1.465713,287.427948 
	C6.421851,286.901276 10.940548,287.203674 15.397866,286.810425 
	C36.022209,284.990692 56.623280,282.907928 77.246140,281.070404 
	C84.853157,280.392670 85.872063,279.291473 84.458611,271.300751 
	C83.080688,271.239471 81.609917,271.022430 80.164856,271.135132 
	C72.567329,271.727722 64.976105,272.401306 57.383072,273.051147 
	C48.636665,273.799744 39.889450,274.539246 31.144781,275.307709 
	C21.095263,276.190826 11.048155,277.101379 1.000000,278.000000 
	C1.000000,272.645081 1.000000,267.290131 1.418593,261.497803 
	C3.457823,261.365662 5.077887,261.933380 6.699184,261.936920 
	C32.476223,261.993073 58.253506,262.011444 84.030495,261.945435 
	C88.676842,261.933533 90.641541,259.657593 90.308144,254.965576 
	C90.000549,250.636475 86.460091,252.080200 84.191307,252.070343 
	C58.913437,251.960449 33.634827,251.974823 8.356671,252.046478 
	C5.903566,252.053421 3.452182,252.667648 0.999999,253.000000 
	C1.000000,247.311966 1.000000,241.623917 1.396617,235.516296 
	C12.451237,236.389771 23.085567,237.942001 33.772518,238.918167 
	C52.076515,240.590073 70.425545,241.769775 88.728462,243.452103 
	C93.640236,243.903564 93.706314,240.372284 94.447510,237.586304 
	C95.420288,233.929901 92.415756,234.193726 90.116058,233.999985 
	C77.579185,232.943817 65.047356,231.823135 52.504398,230.845093 
	C35.340679,229.506760 18.168533,228.276566 1.000000,227.000000 
	C1.000000,220.978851 1.000000,214.957703 1.375657,208.488037 
	C3.769232,208.739532 5.737361,209.694717 7.812847,210.099655 
	C26.682045,213.781204 45.564919,217.393463 64.454666,220.968506 
	C73.085274,222.601898 81.721596,224.227768 90.400597,225.562698 
	C92.040848,225.814957 93.894646,224.678848 95.649902,224.183365 
	C94.886520,222.147537 94.287186,220.023941 93.270584,218.123566 
	C92.915794,217.460327 91.553505,217.105042 90.614418,217.020859 
	C80.518181,216.115921 71.119553,212.289841 61.352833,210.145447 
	C46.007771,206.776306 30.390455,204.634109 14.869831,202.085617 
	C10.218764,201.321915 5.416701,199.629364 1.000000,203.000000 
	C1.000000,135.739639 1.000000,68.479271 1.000000,1.000000 
	C68.020737,1.000000 135.041702,1.000000 202.471039,1.374957 
	C202.302658,4.415735 200.894852,7.209593 201.282684,9.726812 
	C204.006668,27.407608 206.959686,45.056828 210.134827,62.662880 
	C211.779343,71.781700 214.089233,80.778824 215.975098,89.856567 
	C216.872757,94.177544 220.156677,92.837257 222.741852,92.839119 
	C226.176025,92.841606 225.530045,90.478905 225.123825,88.236694 
	C224.474777,84.654045 224.081345,81.024155 223.400848,77.448303 
	C220.270630,60.999454 217.151627,44.547825 213.879410,28.126915 
	C212.071503,19.054342 209.969467,10.040380 208.000000,0.999999 
	C214.021149,1.000000 220.042297,1.000000 226.572968,1.465643 
	C227.100464,6.427083 226.820801,10.947371 227.188416,15.414391 
	C228.698135,33.759560 230.378098,52.090958 232.053467,70.422119 
	C232.641800,76.859383 233.428955,83.278236 234.063202,89.711624 
	C234.435669,93.489449 237.325806,93.262962 239.639267,92.778244 
	C241.109940,92.470108 243.258255,90.789917 243.381882,89.553024 
	C243.707108,86.298409 243.131958,82.946312 242.844376,79.639214 
	C241.235703,61.140461 239.696442,42.634949 237.940353,24.150091 
	C237.205017,16.410139 235.994476,8.715333 235.000000,1.000000 
	C240.688034,1.000000 246.376083,1.000000 252.499207,1.418281 
	C252.622101,4.458941 252.046799,7.080522 252.038834,9.703823 
	C251.967636,33.179310 251.993362,56.655098 251.999283,80.130798 
	C252.000076,83.293671 251.740082,86.505295 252.227509,89.595505 
	C252.423615,90.838837 254.178543,92.566322 255.446106,92.784790 
	C261.053589,93.751289 261.982178,92.800194 261.987793,86.781471 
	C262.012238,60.641888 262.024261,34.502201 261.953949,8.362787 
	C261.947357,5.907688 261.332458,3.454225 261.000000,1.000001 
	C266.354919,1.000000 271.709869,1.000000 277.600098,1.438996 
	C277.095245,12.425880 275.921875,22.962704 275.044647,33.524128 
	C273.548370,51.538818 272.304626,69.574585 270.779388,87.586655 
	C270.545135,90.352997 270.041595,92.692879 273.794861,92.896027 
	C276.885162,93.063278 279.759247,93.312744 280.083069,88.741013 
	C280.937744,76.676315 282.188263,64.640266 283.138245,52.581551 
	C284.492310,35.392967 285.718933,18.194338 287.000000,1.000000 
	C293.021149,1.000000 299.042297,1.000000 305.503723,1.374612 
	C305.249573,3.771154 304.314301,5.745039 303.899811,7.822815 
	C301.207031,21.320410 298.545197,34.825325 296.033966,48.357670 
	C293.523834,61.884068 291.296783,75.463448 288.725891,88.977798 
	C288.124908,92.136993 289.410675,92.707878 292.007263,92.980064 
	C295.744751,93.371841 298.029175,92.225227 298.729645,88.243652 
	C299.272583,85.157631 300.465240,82.187309 301.029755,79.103439 
	C304.278198,61.356930 307.739288,43.639904 310.466492,25.811644 
	C311.713745,17.657930 315.787964,9.516232 312.000000,1.000000 
	C378.927216,1.000000 445.854401,1.000000 513.000000,1.000000 
	C513.000000,68.020737 513.000000,135.041702 512.649231,202.475235 
	C509.804260,200.565460 507.087708,199.882950 503.634674,200.774109 
	C499.476532,201.847198 495.148804,202.251953 490.905426,203.007660 
	C474.135254,205.994217 457.360168,208.954941 440.607605,212.037766 
	C435.720215,212.937134 431.789398,217.925964 431.805603,223.060806 
	C433.616028,222.892136 435.425415,222.867264 437.177582,222.538040 
	C454.272552,219.325974 471.403290,216.279678 488.426697,212.721649 
	C496.723633,210.987534 504.815369,208.271515 513.000000,206.000000 
	C513.000000,212.687637 513.000000,219.375290 512.534302,226.571777 
	C499.645691,227.809082 487.209869,228.367722 474.803314,229.311462 
	C461.088043,230.354767 447.412842,231.937027 433.693878,232.915070 
	C426.755310,233.409729 424.239227,235.529236 423.884369,243.089432 
	C424.693207,243.089432 425.491516,243.136963 426.282745,243.082214 
	C436.712067,242.360748 447.144501,241.677750 457.567749,240.876038 
	C465.995148,240.227875 474.412201,239.443436 482.832062,238.699417 
	C492.889038,237.810760 502.944092,236.900772 513.000000,236.000000 
	C513.000000,241.354935 513.000000,246.709854 512.577087,252.556396 
	C510.032196,252.703506 507.910919,252.063812 505.788177,252.058945 
	C476.328156,251.991333 446.867676,251.968811 417.408234,252.115250 
	C415.676880,252.123856 412.396545,253.960770 412.488220,254.446335 
	C412.949249,256.888428 413.875061,259.534729 415.490479,261.350769 
	C416.373688,262.343719 418.946625,261.977600 420.757843,261.979553 
	C448.886505,262.010162 477.015289,262.027008 505.143799,261.956787 
	C507.763306,261.950256 510.381317,261.333435 513.000000,261.000000 
	C513.000000,266.688049 513.000000,272.376068 512.603333,278.484192 
	C496.750610,277.269836 481.306610,275.508759 465.834869,274.039642 
	C452.636261,272.786438 439.405121,271.876617 426.190063,270.794800 
	C424.128387,270.626038 422.075500,270.350342 419.929688,270.114349 
	C420.139679,278.483063 420.464294,279.402863 427.319031,280.199158 
	C438.662201,281.516876 450.073486,282.267609 461.464386,283.150543 
	C478.639191,284.481903 495.821106,285.721436 513.000000,287.000000 
	C513.000000,293.687653 513.000000,300.375275 512.649353,307.474487 
	C509.671021,306.637512 507.162567,304.768768 504.397064,304.237213 
	C478.830109,299.323029 453.217407,294.647430 427.622925,289.875824 
	C425.334015,289.449127 422.779480,288.318085 422.185791,291.924713 
	C421.687439,294.952271 421.435608,297.952576 425.723938,298.713226 
	C429.140961,299.319275 432.467621,300.428741 435.881592,301.059174 
	C457.388641,305.031067 478.908447,308.933960 500.425171,312.853546 
	C504.821716,313.654480 509.224304,314.438080 513.000000,311.000000 
	C513.000000,378.260345 513.000000,445.520721 513.000000,513.000000 
	C445.979279,513.000000 378.958282,513.000000 311.525024,512.648376 
	C311.994202,510.068085 313.910217,507.678436 313.592529,505.636322 
	C311.173828,490.088562 308.402954,474.593323 305.574280,459.112335 
	C303.107574,445.612549 300.412903,432.154541 297.837738,418.674469 
	C296.468384,411.506256 295.283813,404.298645 293.719147,397.173981 
	C293.101410,394.361053 291.607666,391.571503 287.915253,392.358978 
	C284.577393,393.070862 284.297516,395.485748 284.851959,398.539703 
	C287.188385,411.408813 289.231537,424.331207 291.572571,437.199463 
	C295.338409,457.899445 299.119324,478.598938 303.210205,499.235931 
	C304.145660,503.955017 306.369232,508.418762 308.000000,513.000000 
	C301.312347,513.000000 294.624725,513.000000 287.427307,512.534302 
	C285.638977,494.892029 284.423462,477.710449 283.065765,460.540070 
	C281.421204,439.740997 279.649384,418.951996 277.950897,398.157166 
	C277.676941,394.802826 276.423523,392.031494 272.651764,392.301147 
	C268.945282,392.566101 267.808319,395.454895 268.085388,398.807129 
	C269.068390,410.698364 270.128296,422.583313 271.166626,434.469940 
	C272.780212,452.942413 274.308899,471.423004 276.060516,489.882416 
	C276.793915,497.611664 278.005707,505.295502 279.000000,513.000000 
M114.683922,391.336639 
	C112.291252,388.729370 102.638359,387.707855 99.618225,390.154236 
	C89.440575,398.398438 79.350334,406.754608 69.365166,415.231140 
	C61.412724,421.981995 53.722954,429.041595 45.802635,435.831238 
	C40.133705,440.690887 34.212311,445.255737 28.532927,450.103638 
	C26.085066,452.193146 25.077534,455.258636 28.169046,457.162476 
	C29.869427,458.209595 33.551758,458.179260 35.089184,457.001404 
	C44.829350,449.539276 54.308010,441.725586 63.704735,433.827789 
	C77.536797,422.201996 91.173637,410.343781 105.021561,398.737183 
	C108.102028,396.155273 111.714546,394.208130 114.734001,392.547821 
	C89.249153,418.105927 63.763752,443.663513 38.281193,469.223907 
	C36.989586,470.519440 35.151672,471.634979 34.591019,473.200623 
	C33.917099,475.082520 34.339973,477.357178 34.287979,479.461792 
	C36.524670,479.448059 38.879208,479.855408 40.956970,479.273865 
	C42.361568,478.880737 43.387825,477.106567 44.563957,475.930756 
	C64.208878,456.291687 83.834084,436.632782 103.503090,417.017853 
	C109.622032,410.915649 115.857704,404.930542 122.115677,399.631195 
	C118.467873,404.298645 114.945793,409.071259 111.147987,413.613281 
	C100.937683,425.824524 90.549858,437.887451 80.347412,450.105164 
	C72.373894,459.653656 64.515633,469.300293 56.738167,479.009094 
	C55.004532,481.173187 54.177719,483.727081 56.803570,486.121246 
	C59.324432,488.419678 61.568802,487.821716 63.726265,485.666260 
	C64.783913,484.609558 65.836388,483.534088 66.771919,482.371124 
	C70.203209,478.105865 73.454056,473.688843 77.009148,469.531036 
	C87.342606,457.445557 97.776962,445.446167 108.197502,433.435394 
	C117.002281,423.286926 125.847923,413.173889 134.655518,403.027832 
	C135.191605,402.410278 135.920242,401.643738 135.927322,400.940186 
	C135.952179,398.466217 136.632660,395.174225 135.342239,393.699554 
	C133.259674,391.319641 130.249207,392.584412 127.858505,394.648376 
	C126.019806,396.235779 123.943390,397.547821 121.960281,398.230682 
	C121.713524,393.845825 119.252502,391.946930 114.683922,391.336639 
M283.500000,332.000000 
	C220.007675,332.000092 156.515335,331.999603 93.023010,332.003021 
	C91.023514,332.003143 88.756508,331.458832 87.094887,332.219025 
	C85.184410,333.093018 82.479393,335.085907 82.416870,336.682770 
	C81.993439,347.497620 82.179131,358.336212 82.164108,369.167145 
	C82.160286,371.926697 83.649971,373.016998 86.272957,372.964813 
	C88.271469,372.925018 90.271965,372.997894 92.271576,372.997955 
	C165.264069,373.000549 238.256561,372.998291 311.249054,373.003906 
	C318.722260,373.004456 318.957031,373.339233 317.019623,380.730682 
	C316.851349,381.372620 316.683411,382.014984 316.497040,382.651764 
	C314.322968,390.080566 312.145447,397.508331 309.820129,405.443817 
	C311.503174,405.645477 312.923828,405.962799 314.344788,405.964264 
	C342.341858,405.993317 370.339294,405.917542 398.335724,406.055725 
	C402.752960,406.077545 403.987091,404.421265 404.080750,400.174194 
	C404.549835,378.898712 405.381409,357.631561 405.939972,336.357635 
	C406.398499,318.893890 406.618958,301.423950 407.023621,283.958618 
	C407.115662,279.985168 407.432159,276.009186 407.830078,272.052948 
	C408.162079,268.752014 407.154510,266.882904 403.541718,267.025452 
	C401.712006,267.097656 399.876251,267.004608 398.043213,267.004547 
	C335.716278,267.002563 273.389374,267.003265 211.062454,267.000702 
	C209.062836,267.000641 207.063187,266.973175 205.063599,266.954132 
	C202.075500,266.925690 201.029999,265.715851 201.533508,262.534454 
	C202.310471,257.625488 202.694473,252.637131 202.953705,247.667252 
	C203.390411,239.294846 203.562286,239.011017 211.956161,239.010208 
	C275.949585,239.004074 339.942993,239.006592 403.936401,239.004532 
	C405.936127,239.004471 407.938873,238.908432 409.934875,238.989151 
	C413.552765,239.135452 415.045288,237.421707 414.996613,233.860886 
	C414.907806,227.362976 414.997589,220.862762 414.997162,214.363510 
	C414.996521,205.005402 414.990540,204.996765 405.845123,204.996368 
	C343.018250,204.993546 280.191376,204.995071 217.364517,204.992737 
	C215.364883,204.992661 213.362854,204.897766 211.366135,204.967438 
	C208.100143,205.081390 206.804092,203.418320 207.074036,200.343063 
	C207.364227,197.037155 207.755981,193.740295 208.074570,190.436707 
	C209.080414,180.006485 209.075180,180.005386 198.506821,180.003036 
	C182.008530,179.999374 165.509583,180.062744 149.012802,179.903183 
	C147.118576,179.884857 143.725769,178.818176 143.608795,177.906464 
	C143.088928,173.853897 142.828415,169.475815 143.975189,165.667465 
	C144.353104,164.412430 149.246567,164.069519 152.076218,164.065979 
	C219.402512,163.981537 286.728943,164.000122 354.055359,164.001755 
	C355.555084,164.001801 357.054840,164.031906 358.554565,164.033081 
	C361.642395,164.035507 363.125000,164.906311 362.241516,168.565811 
	C360.139191,177.274048 358.529327,186.100006 356.537354,194.836639 
	C355.754395,198.270599 356.640930,199.970047 360.306152,199.967392 
	C385.303253,199.949295 410.300354,199.946930 435.297455,199.961349 
	C438.341736,199.963104 439.671631,198.633057 440.011932,195.498627 
	C442.967041,168.277710 445.876648,141.048889 449.268738,113.880981 
	C449.913788,108.714653 448.316956,107.957809 443.939758,107.959969 
	C319.452606,108.021439 194.965393,108.033043 70.478302,107.922173 
	C65.421768,107.917664 63.867722,109.576195 63.904167,114.559380 
	C64.095505,140.721939 63.979618,166.886673 64.001625,193.050613 
	C64.007294,199.791397 64.211037,199.974258 71.120911,199.989166 
	C84.119522,200.017242 97.118256,199.982819 110.116867,200.010483 
	C116.980362,200.025101 117.073372,200.104279 115.947197,206.580811 
	C115.207771,210.833176 114.311737,215.060928 113.387276,219.278091 
	C107.341995,246.854996 101.237038,274.418854 95.227005,302.003418 
	C93.495430,309.950928 93.609146,309.976227 101.949165,310.001007 
	C103.282356,310.004974 104.615555,310.002533 105.948753,310.002533 
	C176.108200,310.002625 246.267639,310.002411 316.427094,310.004181 
	C318.426788,310.004242 320.430359,310.110901 322.425293,310.019165 
	C325.963531,309.856384 327.225739,311.661469 326.929260,314.947327 
	C326.601349,318.581665 326.188629,322.210999 325.970062,325.851929 
	C325.721436,329.994019 324.105408,332.146362 319.495026,332.060822 
	C307.833649,331.844391 296.165466,331.995880 283.500000,332.000000 
M170.427170,401.103546 
	C163.566544,415.856873 156.747559,430.629730 149.834305,445.358337 
	C141.942047,462.172760 133.942780,478.936920 126.042999,495.747833 
	C124.167587,499.738739 126.041306,503.084412 130.342224,502.700073 
	C132.318710,502.523499 134.955978,500.698425 135.848267,498.902679 
	C141.541702,487.444641 146.810623,475.776184 152.260651,464.196472 
	C162.375000,442.706543 172.595840,421.265747 182.486618,399.673584 
	C183.206284,398.102509 182.291031,394.740967 180.946793,393.502686 
	C178.762329,391.490417 175.946136,392.199738 174.196976,394.948700 
	C173.038101,396.770020 172.003952,398.670715 170.427170,401.103546 
M184.507401,507.898560 
	C186.324509,502.088409 188.362961,496.336823 189.919617,490.457703 
	C195.988800,467.535828 201.905563,444.573669 207.878464,421.626343 
	C209.801529,414.238068 211.781616,406.863953 213.618500,399.454315 
	C214.438553,396.146393 213.574326,393.288513 209.955490,392.405029 
	C206.599625,391.585785 204.703644,393.372467 203.973877,396.707367 
	C202.948975,401.390961 201.831070,406.058472 200.597519,410.691467 
	C193.895966,435.860962 187.141769,461.016418 180.417694,486.179932 
	C178.960800,491.632050 177.265381,497.046143 176.280579,502.584595 
	C175.940842,504.495270 176.872391,507.335510 178.266220,508.614166 
	C179.267761,509.532959 182.000565,508.564514 184.507401,507.898560 
M158.864059,413.385071 
	C161.412750,408.911804 163.915207,404.411346 166.527222,399.975372 
	C168.120132,397.270142 168.209641,395.019012 165.234070,393.208160 
	C162.097702,391.299347 159.909042,392.382446 158.215958,395.260406 
	C155.102097,400.553375 151.964767,405.832855 148.889511,411.148163 
	C136.707672,432.203430 124.527374,453.259583 112.389435,474.340179 
	C109.157295,479.953583 105.891388,485.561554 102.993462,491.348541 
	C101.034592,495.260315 102.856766,499.022858 106.464447,498.566223 
	C108.501022,498.308441 110.915718,496.370667 112.062141,494.512299 
	C119.001190,483.264191 125.745399,471.890594 132.321747,460.425323 
	C141.157654,445.020630 149.782181,429.494751 158.864059,413.385071 
M86.979942,475.434265 
	C84.608780,478.398468 82.305672,481.420563 79.847038,484.310333 
	C77.449432,487.128448 77.400764,490.124176 80.312294,492.068848 
	C83.307121,494.069153 86.116478,493.052246 88.267410,489.755310 
	C92.230652,483.680542 96.539848,477.831482 100.704033,471.887756 
	C117.158272,448.401886 133.553360,424.874054 150.138229,401.480804 
	C152.292542,398.442078 153.138519,395.234589 150.462311,393.132446 
	C147.178497,390.553040 144.418930,393.141205 142.287613,396.082214 
	C136.643509,403.870605 130.708237,411.454926 125.247917,419.368195 
	C112.532295,437.796143 100.027748,456.369751 86.979942,475.434265 
M152.561310,505.747864 
	C155.686844,507.849945 157.921829,506.575073 159.536545,503.730408 
	C160.430695,502.155182 161.045410,500.408295 161.674850,498.697845 
	C169.630478,477.078522 177.574310,455.454834 185.502853,433.825531 
	C189.503708,422.911072 193.583298,412.022980 197.374176,401.035614 
	C198.448883,397.920654 199.187088,393.968201 194.932083,392.557739 
	C190.971878,391.244995 189.511810,394.444794 188.336304,397.609680 
	C181.639694,415.639038 174.836899,433.629059 168.161255,451.666107 
	C162.809845,466.125244 157.421036,480.575348 152.445023,495.164581 
	C151.410095,498.198975 152.117126,501.827515 152.561310,505.747864 
M337.886810,505.236298 
	C337.676361,503.933136 337.572418,502.602081 337.239746,501.330902 
	C330.727142,476.447266 323.718475,451.679199 317.924927,426.629913 
	C316.056091,418.549622 310.776947,415.564697 303.984558,411.209015 
	C304.511993,414.172302 304.714264,416.061218 305.192139,417.877625 
	C310.342682,437.454742 315.548615,457.017303 320.713684,476.590607 
	C323.208771,486.046112 325.484619,495.564636 328.252563,504.938629 
	C328.810425,506.827942 330.973389,509.206085 332.704346,509.491577 
	C334.176941,509.734497 336.093048,507.288391 337.886810,505.236298 
M486.645752,371.859009 
	C464.857025,361.933685 443.068268,352.008392 421.034454,341.971436 
	C418.954376,351.184662 419.152161,351.713531 425.725250,354.867218 
	C431.122406,357.456757 436.573853,359.932922 441.985779,362.492035 
	C459.998566,371.009583 477.997528,379.556366 496.018951,388.055664 
	C499.505188,389.699829 502.238983,388.182098 502.938568,384.389099 
	C503.661072,380.471710 501.179199,378.526550 498.237518,377.058472 
	C494.673523,375.279816 490.989868,373.740784 486.645752,371.859009 
M312.777863,67.212479 
	C311.134888,73.804031 309.403687,80.375717 307.911774,87.001282 
	C307.544617,88.631866 307.480377,91.698242 308.098938,91.932320 
	C310.130463,92.701103 312.878815,93.219200 314.699371,92.394157 
	C316.219604,91.705231 317.244690,89.107498 317.769135,87.161125 
	C324.415344,62.494038 330.956299,37.798424 337.451569,13.091015 
	C338.366882,9.609200 338.980469,5.712391 334.283630,4.520709 
	C329.971924,3.426739 328.651611,6.615779 327.736511,10.133670 
	C322.853699,28.904930 317.885345,47.653923 312.777863,67.212479 
M178.538956,19.955961 
	C184.626358,42.859791 190.852859,65.728279 196.688019,88.696198 
	C197.907288,93.495407 200.912460,93.279709 204.202591,92.769447 
	C208.136902,92.159271 206.621735,89.240967 206.196121,86.883492 
	C205.961075,85.581551 205.912506,84.236656 205.581360,82.962730 
	C200.701599,64.190613 195.841049,45.413174 190.854050,26.669430 
	C189.154388,20.281214 187.250824,13.938403 185.167740,7.665396 
	C184.331024,5.145729 182.178162,2.939276 179.480408,4.672065 
	C177.817520,5.740154 176.403931,8.460926 176.355194,10.475413 
	C176.285446,13.358383 177.565857,16.274015 178.538956,19.955961 
M422.149719,307.747345 
	C419.776245,314.068848 420.599274,315.999573 426.438477,317.554474 
	C448.218628,323.354187 470.002899,329.138336 491.789368,334.914246 
	C495.317505,335.849609 498.855927,336.749725 502.405426,337.599976 
	C505.634491,338.373474 508.528076,338.048584 509.592773,334.300201 
	C510.658203,330.549377 507.709015,329.383850 505.142090,328.204803 
	C503.804779,327.590607 502.298218,327.335388 500.858215,326.955597 
	C483.872284,322.475708 466.909882,317.903015 449.886780,313.569031 
	C440.934631,311.289886 431.875366,309.431366 422.149719,307.747345 
M383.141083,26.719505 
	C384.834412,23.687641 386.654968,20.718403 388.186676,17.606981 
	C389.848206,14.231858 388.187958,12.185007 384.957428,11.280854 
	C381.140442,10.212557 379.192871,12.368562 377.702454,15.594339 
	C366.854950,39.072124 355.902435,62.501446 345.088745,85.994705 
	C344.259277,87.796753 344.239655,89.971565 343.843628,91.973114 
	C346.248291,92.237183 348.802887,93.104218 351.005768,92.556610 
	C352.513214,92.181877 353.925110,90.020096 354.707062,88.343498 
	C364.163239,68.068398 373.494110,47.734875 383.141083,26.719505 
M373.567200,465.975433 
	C370.465088,459.196991 367.406342,452.398285 364.249237,445.645569 
	C360.805542,438.279846 357.361359,430.911621 353.739532,423.632996 
	C351.771240,419.677399 348.057495,420.984619 344.942902,421.599365 
	C344.572113,421.672485 344.246460,425.368561 344.938324,426.923157 
	C355.584778,450.845184 366.348114,474.715790 377.231445,498.531158 
	C379.271942,502.996246 383.107452,504.273468 386.523071,502.099518 
	C390.709747,499.434753 388.196045,496.507782 386.761658,493.559418 
	C382.414825,484.624573 378.153931,475.647949 373.567200,465.975433 
M162.489075,71.966179 
	C154.741882,55.090096 147.007202,38.208241 139.235275,21.343557 
	C137.924805,18.499929 136.761826,15.512892 134.976761,12.982965 
	C132.854767,9.975501 129.364212,10.156854 127.106995,12.306379 
	C125.891541,13.463849 125.861435,16.762131 126.473732,18.727787 
	C127.340141,21.509180 129.503937,23.854982 130.750626,26.554419 
	C139.716568,45.968464 148.582108,65.428856 157.506622,84.862091 
	C158.475464,86.971779 159.110825,89.920738 160.798782,90.850830 
	C163.239609,92.195778 166.500885,92.051735 169.412140,92.542938 
	C169.342255,90.763184 169.722000,88.811401 169.119125,87.235558 
	C167.227478,82.291092 164.965836,77.488190 162.489075,71.966179 
M470.022125,476.524506 
	C470.258209,476.759186 470.489990,476.998383 470.731018,477.227875 
	C473.242950,479.619415 475.880981,483.111053 479.465942,479.512360 
	C482.991882,475.972900 479.738922,473.240936 477.236176,470.738281 
	C457.344025,450.846741 437.407074,430.999634 417.608521,411.015381 
	C414.698364,408.077942 412.923096,407.942261 410.102692,411.205475 
	C407.370911,414.366211 409.347565,415.848114 411.253632,417.753784 
	C430.676331,437.173157 450.096741,456.594788 470.022125,476.524506 
M478.625305,457.019867 
	C481.515533,459.038879 484.280396,459.968414 486.752258,456.358032 
	C489.045013,453.009369 486.621277,450.994568 484.549500,449.213135 
	C474.380066,440.468964 464.124237,431.824371 453.840057,423.214874 
	C443.923340,414.913025 433.964630,406.660309 423.946655,398.481232 
	C422.375732,397.198700 420.391998,396.421722 418.599152,395.411011 
	C417.659729,397.447418 416.162994,399.431213 415.964142,401.537567 
	C415.815491,403.111633 416.961426,405.242035 418.199646,406.424316 
	C420.940948,409.041748 424.176270,411.132050 427.080383,413.590546 
	C436.073273,421.203583 444.965637,428.935577 453.973175,436.531036 
	C461.955078,443.261658 470.038910,449.871429 478.625305,457.019867 
M478.236328,392.093567 
	C473.826477,389.839081 469.297699,387.788025 465.028778,385.292480 
	C451.440948,377.349487 437.966522,369.212524 424.385284,361.258087 
	C423.436401,360.702332 421.613251,360.497345 420.815796,361.039673 
	C418.444824,362.652161 418.573334,368.695251 421.053009,370.317780 
	C424.646393,372.669006 428.505249,374.611084 432.218689,376.782745 
	C451.532623,388.077759 470.843964,399.377289 490.135773,410.710022 
	C493.157532,412.485138 495.965271,412.546753 497.936035,409.454407 
	C500.131409,406.009613 497.830139,403.848694 495.095367,402.167603 
	C489.728943,398.868774 484.307098,395.660065 478.236328,392.093567 
M420.915802,389.566132 
	C427.972900,394.526062 435.038177,399.474396 442.085297,404.448486 
	C454.533722,413.235138 466.953705,422.062256 479.428894,430.810760 
	C481.727753,432.422852 484.116608,434.000671 486.667694,435.136597 
	C490.304169,436.755798 493.358337,434.736420 492.731873,430.878387 
	C492.383942,428.735718 490.750061,426.319427 488.975769,424.980865 
	C483.574036,420.905762 477.756653,417.387787 472.219727,413.484558 
	C457.842072,403.349121 443.548218,393.094818 429.171112,382.958557 
	C426.315613,380.945312 423.238220,379.246826 420.263153,377.403168 
	C419.699799,377.731781 419.136444,378.060394 418.573059,378.389038 
	C419.145203,381.991760 419.717316,385.594513 420.915802,389.566132 
M402.160278,18.708286 
	C388.133453,42.963104 374.106598,67.217918 359.948456,91.699814 
	C368.402344,94.297684 370.107208,93.381859 373.942963,86.738129 
	C381.716736,73.273582 389.779053,59.976002 397.635437,46.558655 
	C401.996490,39.110710 406.422516,31.680525 410.284607,23.974392 
	C411.301453,21.945486 411.346191,18.050217 410.052948,16.539410 
	C407.611115,13.686809 404.658325,15.422066 402.160278,18.708286 
M437.492523,470.023712 
	C441.326843,474.811584 445.070282,479.676422 449.032990,484.355591 
	C451.079315,486.771790 453.427216,489.314423 456.932556,486.317139 
	C460.297974,483.439514 458.680145,480.670776 456.535706,478.108337 
	C440.599731,459.066010 424.610931,440.067902 408.668701,421.030823 
	C404.075836,415.546356 401.724030,415.400879 395.815552,420.647583 
	C398.913818,424.673798 401.859344,428.866882 405.175323,432.743042 
	C415.711548,445.059387 426.385803,457.257660 437.492523,470.023712 
M342.925659,471.737274 
	C344.922363,477.525879 346.870941,483.331665 348.930695,489.097748 
	C350.659332,493.936981 352.204712,498.886414 354.491089,503.456970 
	C355.273468,505.020905 358.112183,506.416718 359.906372,506.298309 
	C361.022339,506.224701 362.686829,503.199890 362.764893,501.440186 
	C362.868378,499.107971 361.796631,496.671509 360.998077,494.359985 
	C356.566376,481.531219 352.243469,468.660339 347.526886,455.936005 
	C344.073242,446.618652 339.806671,437.601288 336.396606,428.269623 
	C333.668915,420.805298 333.418213,420.286285 324.420441,420.758057 
	C325.586792,424.637054 326.496582,428.423431 327.854370,432.041748 
	C332.736633,445.052643 337.770172,458.006805 342.925659,471.737274 
M114.438301,23.106867 
	C113.482841,21.549955 112.587799,19.951756 111.558388,18.445379 
	C109.821732,15.904057 107.663208,14.012100 104.504494,16.069471 
	C101.653473,17.926426 101.433037,20.619427 103.054741,23.470232 
	C108.550507,33.131290 114.026482,42.804138 119.601784,52.419281 
	C126.582268,64.457787 133.721649,76.404533 140.652542,88.471252 
	C143.483841,93.400543 147.524368,94.536644 153.594025,91.219032 
	C140.666763,68.717255 127.744415,46.224007 114.438301,23.106867 
M370.912872,422.256348 
	C367.696686,421.794312 364.480469,421.332245 359.887054,420.672363 
	C361.154297,423.499390 361.560883,424.693604 362.186707,425.759003 
	C370.158386,439.330841 378.241302,452.837982 386.128784,466.458405 
	C391.430573,475.613708 396.438080,484.939056 401.638733,494.153625 
	C403.320801,497.133881 405.301392,500.393524 409.366943,497.949615 
	C413.053284,495.733643 412.158417,492.627533 410.247223,489.348663 
	C402.485687,476.032898 394.952209,462.584320 387.209198,449.257629 
	C382.056061,440.388519 376.690491,431.642853 370.912872,422.256348 
M460.477844,338.031067 
	C449.064514,334.004395 437.635956,330.020111 426.246582,325.926819 
	C422.522217,324.588318 421.096802,325.696625 420.974701,329.643005 
	C420.867035,333.124359 422.526642,334.740021 425.495422,335.824554 
	C438.382904,340.532440 451.241211,345.320190 464.112000,350.073853 
	C475.454285,354.263031 486.751953,358.581543 498.175537,362.536224 
	C501.068420,363.537720 504.895691,364.054749 506.384216,360.217224 
	C507.952576,356.173950 504.586456,354.555573 501.610291,353.415497 
	C488.182007,348.271484 474.699768,343.268433 460.477844,338.031067 
M170.933487,41.497940 
	C167.438217,31.663755 164.011169,21.804459 160.405579,12.010891 
	C159.341599,9.120909 157.606918,6.205883 153.844330,7.560563 
	C150.155396,8.888733 151.051132,12.358024 151.218369,15.303760 
	C151.235947,15.613583 151.469086,15.907822 151.584564,16.215910 
	C160.009293,38.694103 168.439590,61.170208 176.844208,83.655914 
	C177.709244,85.970261 177.752670,89.180336 179.374283,90.471642 
	C181.323792,92.024048 184.555435,91.966347 187.231964,92.605766 
	C187.470932,90.854965 188.377975,88.862610 187.845764,87.390648 
	C182.389313,72.300087 176.699417,57.293941 170.933487,41.497940 
M346.132568,31.800810 
	C342.958496,40.505131 339.752777,49.198086 336.618591,57.916756 
	C333.028168,67.904640 329.400513,77.882034 326.068573,87.956429 
	C325.630188,89.281952 326.526703,92.340027 327.351135,92.561386 
	C330.393066,93.378136 333.501709,93.534821 335.051727,89.415367 
	C338.496918,80.259041 342.434448,71.287827 345.872009,62.128819 
	C351.230103,47.852757 356.400360,33.504925 361.495697,19.132711 
	C362.359009,16.697495 362.879089,13.960761 362.722290,11.414795 
	C362.635620,10.008075 361.016998,7.913239 359.717712,7.581177 
	C358.387329,7.241153 356.182495,8.286585 355.126404,9.431930 
	C353.847595,10.818761 353.279083,12.910743 352.567139,14.760674 
	C350.480896,20.181616 348.475983,25.633846 346.132568,31.800810 
M414.033600,473.464874 
	C414.782440,474.556152 415.522614,475.653442 416.281586,476.737640 
	C419.498505,481.333313 422.587433,486.027191 425.991669,490.479858 
	C428.027893,493.143158 431.024506,493.951630 433.967224,492.042053 
	C436.972260,490.091980 435.918579,487.313690 434.384857,485.017303 
	C432.092834,481.585449 429.399811,478.423950 427.042969,475.032379 
	C415.504608,458.428497 404.009094,441.794800 392.525879,425.152679 
	C389.227173,420.372009 384.643738,419.403198 378.721802,422.648254 
	C390.357605,439.424713 401.968292,456.165039 414.033600,473.464874 
M408.009064,49.504604 
	C398.161285,63.493336 388.313538,77.482063 377.626373,92.663101 
	C383.628998,92.527626 388.212250,94.892746 391.737793,89.865685 
	C405.812775,69.796104 419.923279,49.750950 434.140411,29.782019 
	C436.244873,26.826120 436.666199,23.983332 433.754242,21.984644 
	C430.796844,19.954821 427.990906,20.881252 425.779877,24.167355 
	C420.155182,32.526810 414.246735,40.695309 408.009064,49.504604 
M104.164345,64.316803 
	C110.203323,72.849869 116.225624,81.394814 122.288727,89.910706 
	C125.080086,93.831306 130.834152,94.261368 134.712921,90.751297 
	C132.586838,87.838791 130.376785,84.954971 128.317719,81.967094 
	C115.242363,62.993683 102.209427,43.991043 89.139885,25.013618 
	C86.455101,21.115219 82.544769,19.775930 79.940147,21.994183 
	C76.252281,25.134987 78.915092,28.195978 80.694016,30.783190 
	C88.289337,41.829590 96.102272,52.726360 104.164345,64.316803 
M398.686249,89.893883 
	C398.846161,90.831573 398.704010,92.344673 399.215271,92.613068 
	C402.402557,94.286285 409.399902,92.598824 411.629974,89.913246 
	C418.185669,82.018600 424.796631,74.169785 431.335083,66.260948 
	C439.150757,56.807217 446.900085,47.298626 454.707764,37.838261 
	C457.171600,34.852921 461.272980,32.156574 457.016266,27.829088 
	C454.288635,25.056093 451.302612,26.483934 447.109680,31.734791 
	C440.483551,40.032639 433.784729,48.275265 426.975281,56.423092 
	C417.751404,67.459892 408.393921,78.385040 398.686249,89.893883 
M106.329407,92.755966 
	C109.515480,92.755966 112.701561,92.755966 115.887634,92.755966 
	C116.115128,92.242554 116.342621,91.729134 116.570107,91.215721 
	C110.675491,83.955154 104.901772,76.592049 98.853996,69.461388 
	C92.116440,61.517433 85.052063,53.851276 78.278442,45.937099 
	C73.750633,40.646889 69.591042,35.040714 65.041199,29.770592 
	C63.329388,27.787785 61.553375,24.977303 58.014366,27.054363 
	C54.395008,29.178581 54.291748,32.154022 57.690029,36.169975 
	C70.205490,50.960266 82.680466,65.784805 95.196976,80.574203 
	C98.603096,84.598839 102.101532,88.545341 106.329407,92.755966 
M5.562118,330.037109 
	C5.519007,332.140411 4.618879,335.260345 5.630164,336.112823 
	C7.215651,337.449341 10.311721,338.110565 12.387552,337.577179 
	C34.881279,331.797333 57.284557,325.666595 79.753853,319.789642 
	C84.255760,318.612122 84.338890,315.542725 83.815544,312.089935 
	C83.196869,308.008057 80.202820,309.721832 77.941681,309.989594 
	C76.311768,310.182587 74.704102,310.622894 73.108620,311.037872 
	C57.697025,315.046173 42.265343,318.980804 26.893005,323.134888 
	C19.900883,325.024384 13.028800,327.358063 5.562118,330.037109 
M73.678177,391.155457 
	C57.119282,402.749359 40.593796,414.391510 23.971312,425.893524 
	C20.908037,428.013184 20.050568,430.784546 21.821903,433.551208 
	C23.681499,436.455780 26.633562,436.667236 29.544479,434.248474 
	C32.973228,431.399384 36.417149,428.536041 40.083157,426.010803 
	C54.706238,415.938049 69.443298,406.030853 84.077728,395.974426 
	C87.312790,393.751343 90.301132,391.169250 93.789246,388.451569 
	C87.134399,384.929291 81.745644,384.115479 76.741318,389.078857 
	C76.042412,389.772064 75.131905,390.251984 73.678177,391.155457 
M76.999580,83.501015 
	C78.886063,85.384247 80.965797,87.112854 82.620781,89.181313 
	C86.677742,94.251831 91.722771,93.307144 97.981621,92.195999 
	C96.389450,90.291115 95.464996,88.997849 94.357117,87.887634 
	C77.175941,70.670212 59.972603,53.474918 42.766621,36.282276 
	C41.943455,35.459747 41.134537,34.198864 40.168129,34.035717 
	C38.383396,33.734421 35.662640,33.392967 34.840488,34.356083 
	C33.757462,35.624802 33.627365,38.248455 34.038326,40.075726 
	C34.353962,41.479134 36.102005,42.589375 37.277046,43.766068 
	C50.344074,56.851421 63.423580,69.924316 76.999580,83.501015 
M429.499329,77.999275 
	C425.071289,82.460388 420.643250,86.921494 415.457611,92.145874 
	C423.134338,93.649384 427.923218,93.006432 432.544342,88.182457 
	C446.946960,73.147751 461.879669,58.620880 476.603882,43.894173 
	C477.546051,42.951847 479.033936,42.106907 479.270416,41.002960 
	C479.727905,38.867413 479.473724,36.579407 479.514496,34.354588 
	C477.274750,34.493271 474.938629,34.294674 472.831390,34.896927 
	C471.564178,35.259106 470.644501,36.860142 469.584198,37.920025 
	C456.387543,51.111412 443.193756,64.305664 429.499329,77.999275 
M51.664062,395.287323 
	C60.096745,389.952576 68.529427,384.617798 77.176598,379.147369 
	C74.789993,376.316711 73.097290,374.309082 71.298645,372.175781 
	C69.308350,373.026215 67.378464,373.617126 65.685310,374.611237 
	C51.999554,382.646851 38.358818,390.759125 24.702793,398.845367 
	C22.276117,400.282257 19.349928,401.272186 17.575653,403.281830 
	C16.284983,404.743744 15.682622,407.862518 16.360987,409.634949 
	C16.794081,410.766571 20.223846,411.435944 22.127556,411.139709 
	C24.305407,410.800812 26.299515,409.196045 28.341139,408.082092 
	C35.905872,403.954681 43.457294,399.802917 51.664062,395.287323 
M24.513781,349.038116 
	C19.701553,350.869019 14.748639,352.416962 10.160343,354.698212 
	C8.729947,355.409424 7.484051,358.189545 7.663668,359.860229 
	C7.789062,361.026611 10.408231,362.578583 12.050371,362.767273 
	C14.240479,363.018890 16.672863,362.421692 18.811535,361.658020 
	C33.347385,356.467438 47.829884,351.127594 62.337040,345.856415 
	C68.487534,343.621613 71.420181,338.929840 70.450851,332.008911 
	C55.311310,337.647339 40.291000,343.241364 24.513781,349.038116 
M28.286924,371.851562 
	C23.926159,373.879822 19.604950,375.999420 15.192928,377.909271 
	C11.193778,379.640442 9.931831,382.472168 11.839639,386.287781 
	C13.898749,390.405975 16.938520,388.578461 19.855036,387.194397 
	C34.064827,380.451233 48.224056,373.594604 62.547665,367.101257 
	C69.417953,363.986755 70.392845,361.776611 66.260109,354.106598 
	C53.852268,359.891785 41.403816,365.695892 28.286924,371.851562 
M482.333801,191.776184 
	C490.030396,189.822083 497.817902,188.149307 505.358795,185.713211 
	C507.210083,185.115158 509.309723,182.086075 509.427551,180.065735 
	C509.607666,176.976608 506.801910,175.749603 503.745605,176.085342 
	C502.442047,176.228561 501.150757,176.561249 499.878571,176.900360 
	C487.852386,180.105942 475.979065,184.226166 463.758057,186.241959 
	C455.378693,187.624084 453.067291,192.345474 451.313599,200.003601 
	C461.810303,197.212204 471.670746,194.590012 482.333801,191.776184 
M458.541931,86.044220 
	C461.616852,83.514122 464.693085,80.985619 467.766418,78.453598 
	C473.781158,73.498268 479.847961,68.604004 485.779633,63.551102 
	C487.932495,61.717175 488.739960,58.954529 486.197784,57.206448 
	C484.567444,56.085365 481.873047,56.387146 479.648804,56.333515 
	C479.016235,56.318256 478.358612,57.291721 477.714417,57.814213 
	C469.221741,64.702400 460.605835,71.445915 452.282104,78.532562 
	C447.074371,82.966347 442.306763,87.917068 437.188721,92.781197 
	C445.080200,97.056244 446.910126,96.913750 452.779572,91.716888 
	C454.617981,90.089142 456.283295,88.265953 458.541931,86.044220 
M39.479645,73.008331 
	C45.809029,78.575592 52.261162,84.010651 58.436081,89.744255 
	C65.811600,96.592659 68.960495,97.305618 76.920265,92.556152 
	C73.633476,89.581062 70.586540,86.668770 67.377998,83.946983 
	C56.650562,74.847000 45.911095,65.759743 35.065674,56.801464 
	C32.746250,54.885628 30.050154,54.158115 27.621559,57.097378 
	C25.130396,60.112354 26.723907,62.367489 28.957790,64.334114 
	C32.189724,67.179382 35.598392,69.823906 39.479645,73.008331 
M473.752258,160.113449 
	C469.436646,161.814880 465.031250,163.323044 460.831757,165.274414 
	C456.965729,167.070831 457.269928,170.908142 457.725433,174.278442 
	C457.773010,174.630661 462.128571,175.069580 464.105530,174.379761 
	C474.260529,170.836380 484.290863,166.935730 494.365753,163.162720 
	C497.314911,162.058273 500.518799,161.361801 503.127014,159.718323 
	C504.772552,158.681427 505.529846,156.234970 506.685547,154.420776 
	C504.724030,153.296997 502.861542,151.568314 500.772034,151.226288 
	C498.836182,150.909393 496.600372,151.912491 494.596405,152.617844 
	C487.876801,154.982925 481.201752,157.474777 473.752258,160.113449 
M34.010712,192.420990 
	C39.713242,193.811569 45.415775,195.202148 51.330254,196.644424 
	C51.384937,189.141464 49.876831,186.081879 46.055164,185.111481 
	C34.793247,182.251831 23.516273,179.451477 12.254450,176.591461 
	C8.927473,175.746552 5.708540,175.469803 4.494560,179.543488 
	C3.208311,183.859695 6.643920,185.125504 9.664736,185.987823 
	C17.469025,188.215668 25.358896,190.143707 34.010712,192.420990 
M459.874420,152.604218 
	C460.589508,152.805176 461.481506,153.388336 461.993805,153.151199 
	C474.817841,147.215744 487.624481,141.240768 500.353607,135.105576 
	C501.473572,134.565796 502.775452,132.828278 502.702148,131.733505 
	C502.571228,129.779099 501.952820,127.279510 500.591278,126.170517 
	C499.526459,125.303215 496.781586,125.661774 495.208649,126.392021 
	C485.576996,130.863754 476.228241,135.980377 466.454895,140.098053 
	C460.642426,142.546951 459.525879,146.596451 459.874420,152.604218 
M41.020588,137.513458 
	C33.608490,133.782654 26.285580,129.852417 18.718330,126.468575 
	C16.941833,125.674171 13.463755,125.893158 12.306544,127.109352 
	C10.153831,129.371826 10.104337,132.674896 12.964955,135.034286 
	C14.228586,136.076492 15.707050,136.922714 17.202438,137.608246 
	C23.541670,140.514389 29.911148,143.355743 36.294914,146.163132 
	C40.461899,147.995667 44.672409,149.729248 48.922386,151.532166 
	C51.319695,143.045303 50.878380,142.277969 41.020588,137.513458 
M17.262617,162.200928 
	C26.853140,165.792908 36.427673,169.429153 46.059391,172.907028 
	C47.002346,173.247513 48.825825,173.022522 49.336716,172.361465 
	C51.518150,169.538788 49.592793,163.869385 46.217354,162.613495 
	C39.389912,160.073227 32.562695,157.531326 25.710953,155.057770 
	C21.833015,153.657791 17.981932,151.851913 13.970430,151.292450 
	C11.946373,151.010193 9.592110,153.095642 7.387150,154.110489 
	C8.719646,156.114105 9.771253,158.416946 11.479382,160.020401 
	C12.700702,161.166855 14.802456,161.375412 17.262617,162.200928 
M484.423553,93.015495 
	C486.278168,91.366158 487.967468,89.461937 490.025879,88.126831 
	C493.159058,86.094658 493.947571,83.226997 492.185547,80.459778 
	C490.337158,77.556915 487.503174,77.498077 484.451447,79.716118 
	C475.884552,85.942696 467.151794,91.941559 458.465820,98.003471 
	C456.377289,99.461052 453.929657,100.637497 456.342651,103.794380 
	C458.307739,106.365311 459.912659,109.187172 463.864258,106.481819 
	C470.427643,101.988426 477.124023,97.689308 484.423553,93.015495 
M50.550346,94.986191 
	C45.076134,90.966866 39.638176,86.896713 34.109505,82.953743 
	C31.958067,81.419357 29.716612,79.911301 27.312563,78.854332 
	C23.673109,77.254189 20.628468,79.282768 21.268965,83.145721 
	C21.623930,85.286575 23.261894,87.713867 25.045973,89.030289 
	C31.959267,94.131439 39.260677,98.703484 46.232361,103.729462 
	C53.445999,108.929878 53.354897,109.062263 58.286121,101.869865 
	C58.456497,101.621361 58.447144,101.249634 58.707317,100.150864 
	C56.323181,98.668251 53.721935,97.050621 50.550346,94.986191 
M463.873657,129.147324 
	C473.889618,123.610542 483.912903,118.086975 493.917206,112.529259 
	C497.096466,110.763069 500.413025,108.766327 497.952545,104.430145 
	C495.549225,100.194641 492.165497,102.360344 489.303528,103.939468 
	C481.736572,108.114616 474.283325,112.495514 466.771179,116.770569 
	C461.575897,119.727135 460.593628,123.093567 463.873657,129.147324 
M33.280735,120.285530 
	C35.483925,121.394592 37.780315,122.352005 39.874222,123.638893 
	C49.114342,129.317764 49.093224,129.352127 50.490646,118.532776 
	C41.645527,113.474030 32.716827,108.404869 23.829605,103.264008 
	C20.796455,101.509460 17.993605,101.472061 16.046165,104.577385 
	C13.877093,108.036125 16.204380,110.170998 18.931904,111.846863 
	C23.452471,114.624405 28.032665,117.304901 33.280735,120.285530 
z"/>
<path fill="#343434" opacity="1.000000" stroke="none" 
	d="
M253.444153,513.000000 
	C252.665237,507.718842 252.055817,502.438446 252.040771,497.156372 
	C251.950272,465.382324 251.994766,433.607941 251.999863,401.833649 
	C252.000153,400.004211 251.458176,397.853088 252.231033,396.427795 
	C253.169785,394.696472 255.357498,392.357971 256.786530,392.498779 
	C258.614319,392.678833 261.454041,394.891846 261.694641,396.543793 
	C262.383179,401.271179 261.999878,406.157715 262.000854,410.981689 
	C262.007141,441.924194 262.027802,472.866730 261.961517,503.809082 
	C261.955536,506.593933 261.366425,509.377502 261.024048,512.580811 
	C258.629456,513.000000 256.258881,513.000000 253.444153,513.000000 
z"/>
<path fill="#333333" opacity="1.000000" stroke="none" 
	d="
M227.449982,513.000000 
	C228.280487,495.810028 229.544418,478.618805 230.846710,461.430481 
	C231.873383,447.879730 232.910950,434.329620 234.014420,420.784973 
	C234.632645,413.196472 235.396912,405.619843 236.091141,398.037506 
	C236.398178,394.684204 237.749588,392.061066 241.516449,392.193420 
	C245.653687,392.338745 246.089340,395.654541 245.859238,398.711487 
	C244.962982,410.618622 243.896332,422.513611 242.810562,434.405609 
	C241.981949,443.481201 240.948441,452.538300 240.148575,461.616180 
	C238.665634,478.446625 237.286819,495.286224 235.932312,512.561035 
	C233.299988,513.000000 230.599976,513.000000 227.449982,513.000000 
z"/>
<path fill="#333333" opacity="1.000000" stroke="none" 
	d="
M279.444153,513.000000 
	C278.005707,505.295502 276.793915,497.611664 276.060516,489.882416 
	C274.308899,471.423004 272.780212,452.942413 271.166626,434.469940 
	C270.128296,422.583313 269.068390,410.698364 268.085388,398.807129 
	C267.808319,395.454895 268.945282,392.566101 272.651764,392.301147 
	C276.423523,392.031494 277.676941,394.802826 277.950897,398.157166 
	C279.649384,418.951996 281.421204,439.740997 283.065765,460.540070 
	C284.423462,477.710449 285.638977,494.892029 286.958740,512.534302 
	C284.629425,513.000000 282.258881,513.000000 279.444153,513.000000 
z"/>
<path fill="#343434" opacity="1.000000" stroke="none" 
	d="
M308.375000,513.000000 
	C306.369232,508.418762 304.145660,503.955017 303.210205,499.235931 
	C299.119324,478.598938 295.338409,457.899445 291.572571,437.199463 
	C289.231537,424.331207 287.188385,411.408813 284.851959,398.539703 
	C284.297516,395.485748 284.577393,393.070862 287.915253,392.358978 
	C291.607666,391.571503 293.101410,394.361053 293.719147,397.173981 
	C295.283813,404.298645 296.468384,411.506256 297.837738,418.674469 
	C300.412903,432.154541 303.107574,445.612549 305.574280,459.112335 
	C308.402954,474.593323 311.173828,490.088562 313.592529,505.636322 
	C313.910217,507.678436 311.994202,510.068085 311.056396,512.648376 
	C310.250000,513.000000 309.500000,513.000000 308.375000,513.000000 
z"/>
<path fill="#343434" opacity="1.000000" stroke="none" 
	d="
M203.375000,513.000000 
	C199.311523,508.851715 200.516098,504.126495 201.363663,499.421143 
	C205.233353,477.938110 209.026566,456.441101 212.958527,434.969482 
	C215.222748,422.605133 217.693008,410.278442 220.093155,397.939178 
	C220.249283,397.136505 220.361115,396.033173 220.903244,395.651337 
	C222.656204,394.416748 224.600449,393.453705 226.470993,392.386017 
	C227.372498,394.219177 229.282623,396.212646 229.020676,397.860931 
	C226.165298,415.828644 223.085938,433.763367 219.834152,451.664703 
	C216.696533,468.937561 213.388550,486.181671 209.899689,503.386536 
	C209.271088,506.486359 207.403900,509.335022 206.054291,512.649780 
	C205.250000,513.000000 204.500000,513.000000 203.375000,513.000000 
z"/>
<path fill="#343434" opacity="1.000000" stroke="none" 
	d="
M513.000000,260.555847 
	C510.381317,261.333435 507.763306,261.950256 505.143799,261.956787 
	C477.015289,262.027008 448.886505,262.010162 420.757843,261.979553 
	C418.946625,261.977600 416.373688,262.343719 415.490479,261.350769 
	C413.875061,259.534729 412.949249,256.888428 412.488220,254.446335 
	C412.396545,253.960770 415.676880,252.123856 417.408234,252.115250 
	C446.867676,251.968811 476.328156,251.991333 505.788177,252.058945 
	C507.910919,252.063812 510.032196,252.703506 512.577087,253.024017 
	C513.000000,255.370560 513.000000,257.741119 513.000000,260.555847 
z"/>
<path fill="#333333" opacity="1.000000" stroke="none" 
	d="
M311.571533,1.000000 
	C315.787964,9.516232 311.713745,17.657930 310.466492,25.811644 
	C307.739288,43.639904 304.278198,61.356930 301.029755,79.103439 
	C300.465240,82.187309 299.272583,85.157631 298.729645,88.243652 
	C298.029175,92.225227 295.744751,93.371841 292.007263,92.980064 
	C289.410675,92.707878 288.124908,92.136993 288.725891,88.977798 
	C291.296783,75.463448 293.523834,61.884068 296.033966,48.357670 
	C298.545197,34.825325 301.207031,21.320410 303.899811,7.822815 
	C304.314301,5.745039 305.249573,3.771154 305.971985,1.374612 
	C307.714355,1.000000 309.428711,1.000000 311.571533,1.000000 
z"/>
<path fill="#343434" opacity="1.000000" stroke="none" 
	d="
M260.555847,1.000001 
	C261.332458,3.454225 261.947357,5.907688 261.953949,8.362787 
	C262.024261,34.502201 262.012238,60.641888 261.987793,86.781471 
	C261.982178,92.800194 261.053589,93.751289 255.446106,92.784790 
	C254.178543,92.566322 252.423615,90.838837 252.227509,89.595505 
	C251.740082,86.505295 252.000076,83.293671 251.999283,80.130798 
	C251.993362,56.655098 251.967636,33.179310 252.038834,9.703823 
	C252.046799,7.080522 252.622101,4.458941 252.967163,1.418281 
	C255.370560,1.000000 257.741119,1.000000 260.555847,1.000001 
z"/>
<path fill="#343434" opacity="1.000000" stroke="none" 
	d="
M207.583344,0.999999 
	C209.969467,10.040380 212.071503,19.054342 213.879410,28.126915 
	C217.151627,44.547825 220.270630,60.999454 223.400848,77.448303 
	C224.081345,81.024155 224.474777,84.654045 225.123825,88.236694 
	C225.530045,90.478905 226.176025,92.841606 222.741852,92.839119 
	C220.156677,92.837257 216.872757,94.177544 215.975098,89.856567 
	C214.089233,80.778824 211.779343,71.781700 210.134827,62.662880 
	C206.959686,45.056828 204.006668,27.407608 201.282684,9.726812 
	C200.894852,7.209593 202.302658,4.415735 202.939697,1.374957 
	C204.388885,1.000000 205.777786,1.000000 207.583344,0.999999 
z"/>
<path fill="#333333" opacity="1.000000" stroke="none" 
	d="
M1.000000,227.444183 
	C18.168533,228.276566 35.340679,229.506760 52.504398,230.845093 
	C65.047356,231.823135 77.579185,232.943817 90.116058,233.999985 
	C92.415756,234.193726 95.420288,233.929901 94.447510,237.586304 
	C93.706314,240.372284 93.640236,243.903564 88.728462,243.452103 
	C70.425545,241.769775 52.076515,240.590073 33.772518,238.918167 
	C23.085567,237.942001 12.451237,236.389771 1.396617,235.048355 
	C1.000000,232.629440 1.000000,230.258896 1.000000,227.444183 
z"/>
<path fill="#333333" opacity="1.000000" stroke="none" 
	d="
M513.000000,286.555847 
	C495.821106,285.721436 478.639191,284.481903 461.464386,283.150543 
	C450.073486,282.267609 438.662201,281.516876 427.319031,280.199158 
	C420.464294,279.402863 420.139679,278.483063 419.929688,270.114349 
	C422.075500,270.350342 424.128387,270.626038 426.190063,270.794800 
	C439.405121,271.876617 452.636261,272.786438 465.834869,274.039642 
	C481.306610,275.508759 496.750610,277.269836 512.603333,278.952148 
	C513.000000,281.370575 513.000000,283.741119 513.000000,286.555847 
z"/>
<path fill="#333333" opacity="1.000000" stroke="none" 
	d="
M286.550018,1.000000 
	C285.718933,18.194338 284.492310,35.392967 283.138245,52.581551 
	C282.188263,64.640266 280.937744,76.676315 280.083069,88.741013 
	C279.759247,93.312744 276.885162,93.063278 273.794861,92.896027 
	C270.041595,92.692879 270.545135,90.352997 270.779388,87.586655 
	C272.304626,69.574585 273.548370,51.538818 275.044647,33.524128 
	C275.921875,22.962704 277.095245,12.425880 278.067719,1.438996 
	C280.700012,1.000000 283.400024,1.000000 286.550018,1.000000 
z"/>
<path fill="#333333" opacity="1.000000" stroke="none" 
	d="
M1.000000,203.416656 
	C5.416701,199.629364 10.218764,201.321915 14.869831,202.085617 
	C30.390455,204.634109 46.007771,206.776306 61.352833,210.145447 
	C71.119553,212.289841 80.518181,216.115921 90.614418,217.020859 
	C91.553505,217.105042 92.915794,217.460327 93.270584,218.123566 
	C94.287186,220.023941 94.886520,222.147537 95.649902,224.183365 
	C93.894646,224.678848 92.040848,225.814957 90.400597,225.562698 
	C81.721596,224.227768 73.085274,222.601898 64.454666,220.968506 
	C45.564919,217.393463 26.682045,213.781204 7.812847,210.099655 
	C5.737361,209.694717 3.769232,208.739532 1.375657,208.019775 
	C1.000000,206.611115 1.000000,205.222214 1.000000,203.416656 
z"/>
<path fill="#333333" opacity="1.000000" stroke="none" 
	d="
M234.555832,1.000000 
	C235.994476,8.715333 237.205017,16.410139 237.940353,24.150091 
	C239.696442,42.634949 241.235703,61.140461 242.844376,79.639214 
	C243.131958,82.946312 243.707108,86.298409 243.381882,89.553024 
	C243.258255,90.789917 241.109940,92.470108 239.639267,92.778244 
	C237.325806,93.262962 234.435669,93.489449 234.063202,89.711624 
	C233.428955,83.278236 232.641800,76.859383 232.053467,70.422119 
	C230.378098,52.090958 228.698135,33.759560 227.188416,15.414391 
	C226.820801,10.947371 227.100464,6.427083 227.041260,1.465643 
	C229.370560,1.000000 231.741104,1.000000 234.555832,1.000000 
z"/>
<path fill="#343434" opacity="1.000000" stroke="none" 
	d="
M0.999999,253.444153 
	C3.452182,252.667648 5.903566,252.053421 8.356671,252.046478 
	C33.634827,251.974823 58.913437,251.960449 84.191307,252.070343 
	C86.460091,252.080200 90.000549,250.636475 90.308144,254.965576 
	C90.641541,259.657593 88.676842,261.933533 84.030495,261.945435 
	C58.253506,262.011444 32.476223,261.993073 6.699184,261.936920 
	C5.077887,261.933380 3.457823,261.365662 1.418593,261.030212 
	C1.000000,258.629456 1.000000,256.258881 0.999999,253.444153 
z"/>
<path fill="#333333" opacity="1.000000" stroke="none" 
	d="
M513.000000,235.550018 
	C502.944092,236.900772 492.889038,237.810760 482.832062,238.699417 
	C474.412201,239.443436 465.995148,240.227875 457.567749,240.876038 
	C447.144501,241.677750 436.712067,242.360748 426.282745,243.082214 
	C425.491516,243.136963 424.693207,243.089432 423.884369,243.089432 
	C424.239227,235.529236 426.755310,233.409729 433.693878,232.915070 
	C447.412842,231.937027 461.088043,230.354767 474.803314,229.311462 
	C487.209869,228.367722 499.645691,227.809082 512.534302,227.040314 
	C513.000000,229.700012 513.000000,232.400024 513.000000,235.550018 
z"/>
<path fill="#333333" opacity="1.000000" stroke="none" 
	d="
M513.000000,310.625000 
	C509.224304,314.438080 504.821716,313.654480 500.425171,312.853546 
	C478.908447,308.933960 457.388641,305.031067 435.881592,301.059174 
	C432.467621,300.428741 429.140961,299.319275 425.723938,298.713226 
	C421.435608,297.952576 421.687439,294.952271 422.185791,291.924713 
	C422.779480,288.318085 425.334015,289.449127 427.622925,289.875824 
	C453.217407,294.647430 478.830109,299.323029 504.397064,304.237213 
	C507.162567,304.768768 509.671021,306.637512 512.649353,307.942993 
	C513.000000,308.750000 513.000000,309.500000 513.000000,310.625000 
z"/>
<path fill="#333333" opacity="1.000000" stroke="none" 
	d="
M1.000000,278.449982 
	C11.048155,277.101379 21.095263,276.190826 31.144781,275.307709 
	C39.889450,274.539246 48.636665,273.799744 57.383072,273.051147 
	C64.976105,272.401306 72.567329,271.727722 80.164856,271.135132 
	C81.609917,271.022430 83.080688,271.239471 84.458611,271.300751 
	C85.872063,279.291473 84.853157,280.392670 77.246140,281.070404 
	C56.623280,282.907928 36.022209,284.990692 15.397866,286.810425 
	C10.940548,287.203674 6.421851,286.901276 1.465713,286.959656 
	C1.000000,284.299988 1.000000,281.599976 1.000000,278.449982 
z"/>
<path fill="#343434" opacity="1.000000" stroke="none" 
	d="
M1.000000,306.428467 
	C9.376058,304.170227 17.725126,302.204132 26.133860,300.539398 
	C43.019402,297.196503 59.948170,294.071747 76.831009,290.715637 
	C79.441223,290.196747 81.664276,289.749237 81.842857,293.231018 
	C81.997597,296.248016 82.989632,300.133331 78.535080,300.926300 
	C59.019119,304.400360 39.490891,307.822174 19.913404,310.923981 
	C13.971365,311.865448 7.856958,311.719055 1.410749,312.035461 
	C1.000000,310.285645 1.000000,308.571289 1.000000,306.428467 
z"/>
<path fill="#333333" opacity="1.000000" stroke="none" 
	d="
M513.000000,205.625000 
	C504.815369,208.271515 496.723633,210.987534 488.426697,212.721649 
	C471.403290,216.279678 454.272552,219.325974 437.177582,222.538040 
	C435.425415,222.867264 433.616028,222.892136 431.805603,223.060806 
	C431.789398,217.925964 435.720215,212.937134 440.607605,212.037766 
	C457.360168,208.954941 474.135254,205.994217 490.905426,203.007660 
	C495.148804,202.251953 499.476532,201.847198 503.634674,200.774109 
	C507.087708,199.882950 509.804260,200.565460 512.649231,202.943893 
	C513.000000,203.750000 513.000000,204.500000 513.000000,205.625000 
z"/>
<path fill="#333333" opacity="1.000000" stroke="none" 
	d="
M284.000000,332.000000 
	C296.165466,331.995880 307.833649,331.844391 319.495026,332.060822 
	C324.105408,332.146362 325.721436,329.994019 325.970062,325.851929 
	C326.188629,322.210999 326.601349,318.581665 326.929260,314.947327 
	C327.225739,311.661469 325.963531,309.856384 322.425293,310.019165 
	C320.430359,310.110901 318.426788,310.004242 316.427094,310.004181 
	C246.267639,310.002411 176.108200,310.002625 105.948753,310.002533 
	C104.615555,310.002533 103.282356,310.004974 101.949165,310.001007 
	C93.609146,309.976227 93.495430,309.950928 95.227005,302.003418 
	C101.237038,274.418854 107.341995,246.854996 113.387276,219.278091 
	C114.311737,215.060928 115.207771,210.833176 115.947197,206.580811 
	C117.073372,200.104279 116.980362,200.025101 110.116867,200.010483 
	C97.118256,199.982819 84.119522,200.017242 71.120911,199.989166 
	C64.211037,199.974258 64.007294,199.791397 64.001625,193.050613 
	C63.979618,166.886673 64.095505,140.721939 63.904167,114.559380 
	C63.867722,109.576195 65.421768,107.917664 70.478302,107.922173 
	C194.965393,108.033043 319.452606,108.021439 443.939758,107.959969 
	C448.316956,107.957809 449.913788,108.714653 449.268738,113.880981 
	C445.876648,141.048889 442.967041,168.277710 440.011932,195.498627 
	C439.671631,198.633057 438.341736,199.963104 435.297455,199.961349 
	C410.300354,199.946930 385.303253,199.949295 360.306152,199.967392 
	C356.640930,199.970047 355.754395,198.270599 356.537354,194.836639 
	C358.529327,186.100006 360.139191,177.274048 362.241516,168.565811 
	C363.125000,164.906311 361.642395,164.035507 358.554565,164.033081 
	C357.054840,164.031906 355.555084,164.001801 354.055359,164.001755 
	C286.728943,164.000122 219.402512,163.981537 152.076218,164.065979 
	C149.246567,164.069519 144.353104,164.412430 143.975189,165.667465 
	C142.828415,169.475815 143.088928,173.853897 143.608795,177.906464 
	C143.725769,178.818176 147.118576,179.884857 149.012802,179.903183 
	C165.509583,180.062744 182.008530,179.999374 198.506821,180.003036 
	C209.075180,180.005386 209.080414,180.006485 208.074570,190.436707 
	C207.755981,193.740295 207.364227,197.037155 207.074036,200.343063 
	C206.804092,203.418320 208.100143,205.081390 211.366135,204.967438 
	C213.362854,204.897766 215.364883,204.992661 217.364517,204.992737 
	C280.191376,204.995071 343.018250,204.993546 405.845123,204.996368 
	C414.990540,204.996765 414.996521,205.005402 414.997162,214.363510 
	C414.997589,220.862762 414.907806,227.362976 414.996613,233.860886 
	C415.045288,237.421707 413.552765,239.135452 409.934875,238.989151 
	C407.938873,238.908432 405.936127,239.004471 403.936401,239.004532 
	C339.942993,239.006592 275.949585,239.004074 211.956161,239.010208 
	C203.562286,239.011017 203.390411,239.294846 202.953705,247.667252 
	C202.694473,252.637131 202.310471,257.625488 201.533508,262.534454 
	C201.029999,265.715851 202.075500,266.925690 205.063599,266.954132 
	C207.063187,266.973175 209.062836,267.000641 211.062454,267.000702 
	C273.389374,267.003265 335.716278,267.002563 398.043213,267.004547 
	C399.876251,267.004608 401.712006,267.097656 403.541718,267.025452 
	C407.154510,266.882904 408.162079,268.752014 407.830078,272.052948 
	C407.432159,276.009186 407.115662,279.985168 407.023621,283.958618 
	C406.618958,301.423950 406.398499,318.893890 405.939972,336.357635 
	C405.381409,357.631561 404.549835,378.898712 404.080750,400.174194 
	C403.987091,404.421265 402.752960,406.077545 398.335724,406.055725 
	C370.339294,405.917542 342.341858,405.993317 314.344788,405.964264 
	C312.923828,405.962799 311.503174,405.645477 309.820129,405.443817 
	C312.145447,397.508331 314.322968,390.080566 316.497040,382.651764 
	C316.683411,382.014984 316.851349,381.372620 317.019623,380.730682 
	C318.957031,373.339233 318.722260,373.004456 311.249054,373.003906 
	C238.256561,372.998291 165.264069,373.000549 92.271576,372.997955 
	C90.271965,372.997894 88.271469,372.925018 86.272957,372.964813 
	C83.649971,373.016998 82.160286,371.926697 82.164108,369.167145 
	C82.179131,358.336212 81.993439,347.497620 82.416870,336.682770 
	C82.479393,335.085907 85.184410,333.093018 87.094887,332.219025 
	C88.756508,331.458832 91.023514,332.003143 93.023010,332.003021 
	C156.515335,331.999603 220.007675,332.000092 284.000000,332.000000 
z"/>
<path fill="#333333" opacity="1.000000" stroke="none" 
	d="
M170.670563,400.819702 
	C172.003952,398.670715 173.038101,396.770020 174.196976,394.948700 
	C175.946136,392.199738 178.762329,391.490417 180.946793,393.502686 
	C182.291031,394.740967 183.206284,398.102509 182.486618,399.673584 
	C172.595840,421.265747 162.375000,442.706543 152.260651,464.196472 
	C146.810623,475.776184 141.541702,487.444641 135.848267,498.902679 
	C134.955978,500.698425 132.318710,502.523499 130.342224,502.700073 
	C126.041306,503.084412 124.167587,499.738739 126.042999,495.747833 
	C133.942780,478.936920 141.942047,462.172760 149.834305,445.358337 
	C156.747559,430.629730 163.566544,415.856873 170.670563,400.819702 
z"/>
<path fill="#333333" opacity="1.000000" stroke="none" 
	d="
M121.972672,398.982300 
	C123.943390,397.547821 126.019806,396.235779 127.858505,394.648376 
	C130.249207,392.584412 133.259674,391.319641 135.342239,393.699554 
	C136.632660,395.174225 135.952179,398.466217 135.927322,400.940186 
	C135.920242,401.643738 135.191605,402.410278 134.655518,403.027832 
	C125.847923,413.173889 117.002281,423.286926 108.197502,433.435394 
	C97.776962,445.446167 87.342606,457.445557 77.009148,469.531036 
	C73.454056,473.688843 70.203209,478.105865 66.771919,482.371124 
	C65.836388,483.534088 64.783913,484.609558 63.726265,485.666260 
	C61.568802,487.821716 59.324432,488.419678 56.803570,486.121246 
	C54.177719,483.727081 55.004532,481.173187 56.738167,479.009094 
	C64.515633,469.300293 72.373894,459.653656 80.347412,450.105164 
	C90.549858,437.887451 100.937683,425.824524 111.147987,413.613281 
	C114.945793,409.071259 118.467873,404.298645 122.061752,399.285339 
	C122.007828,398.939453 121.972664,398.982300 121.972672,398.982300 
z"/>
<path fill="#333333" opacity="1.000000" stroke="none" 
	d="
M184.234222,508.168274 
	C182.000565,508.564514 179.267761,509.532959 178.266220,508.614166 
	C176.872391,507.335510 175.940842,504.495270 176.280579,502.584595 
	C177.265381,497.046143 178.960800,491.632050 180.417694,486.179932 
	C187.141769,461.016418 193.895966,435.860962 200.597519,410.691467 
	C201.831070,406.058472 202.948975,401.390961 203.973877,396.707367 
	C204.703644,393.372467 206.599625,391.585785 209.955490,392.405029 
	C213.574326,393.288513 214.438553,396.146393 213.618500,399.454315 
	C211.781616,406.863953 209.801529,414.238068 207.878464,421.626343 
	C201.905563,444.573669 195.988800,467.535828 189.919617,490.457703 
	C188.362961,496.336823 186.324509,502.088409 184.234222,508.168274 
z"/>
<path fill="#343434" opacity="1.000000" stroke="none" 
	d="
M158.680756,413.702972 
	C149.782181,429.494751 141.157654,445.020630 132.321747,460.425323 
	C125.745399,471.890594 119.001190,483.264191 112.062141,494.512299 
	C110.915718,496.370667 108.501022,498.308441 106.464447,498.566223 
	C102.856766,499.022858 101.034592,495.260315 102.993462,491.348541 
	C105.891388,485.561554 109.157295,479.953583 112.389435,474.340179 
	C124.527374,453.259583 136.707672,432.203430 148.889511,411.148163 
	C151.964767,405.832855 155.102097,400.553375 158.215958,395.260406 
	C159.909042,392.382446 162.097702,391.299347 165.234070,393.208160 
	C168.209641,395.019012 168.120132,397.270142 166.527222,399.975372 
	C163.915207,404.411346 161.412750,408.911804 158.680756,413.702972 
z"/>
<path fill="#333333" opacity="1.000000" stroke="none" 
	d="
M87.208817,475.159302 
	C100.027748,456.369751 112.532295,437.796143 125.247917,419.368195 
	C130.708237,411.454926 136.643509,403.870605 142.287613,396.082214 
	C144.418930,393.141205 147.178497,390.553040 150.462311,393.132446 
	C153.138519,395.234589 152.292542,398.442078 150.138229,401.480804 
	C133.553360,424.874054 117.158272,448.401886 100.704033,471.887756 
	C96.539848,477.831482 92.230652,483.680542 88.267410,489.755310 
	C86.116478,493.052246 83.307121,494.069153 80.312294,492.068848 
	C77.400764,490.124176 77.449432,487.128448 79.847038,484.310333 
	C82.305672,481.420563 84.608780,478.398468 87.208817,475.159302 
z"/>
<path fill="#333333" opacity="1.000000" stroke="none" 
	d="
M152.291351,505.465027 
	C152.117126,501.827515 151.410095,498.198975 152.445023,495.164581 
	C157.421036,480.575348 162.809845,466.125244 168.161255,451.666107 
	C174.836899,433.629059 181.639694,415.639038 188.336304,397.609680 
	C189.511810,394.444794 190.971878,391.244995 194.932083,392.557739 
	C199.187088,393.968201 198.448883,397.920654 197.374176,401.035614 
	C193.583298,412.022980 189.503708,422.911072 185.502853,433.825531 
	C177.574310,455.454834 169.630478,477.078522 161.674850,498.697845 
	C161.045410,500.408295 160.430695,502.155182 159.536545,503.730408 
	C157.921829,506.575073 155.686844,507.849945 152.291351,505.465027 
z"/>
<path fill="#333333" opacity="1.000000" stroke="none" 
	d="
M115.014000,392.043610 
	C119.252502,391.946930 121.713524,393.845825 121.966476,398.606506 
	C121.972664,398.982300 122.007828,398.939453 122.023880,398.915649 
	C115.857704,404.930542 109.622032,410.915649 103.503090,417.017853 
	C83.834084,436.632782 64.208878,456.291687 44.563957,475.930756 
	C43.387825,477.106567 42.361568,478.880737 40.956970,479.273865 
	C38.879208,479.855408 36.524670,479.448059 34.287979,479.461792 
	C34.339973,477.357178 33.917099,475.082520 34.591019,473.200623 
	C35.151672,471.634979 36.989586,470.519440 38.281193,469.223907 
	C63.763752,443.663513 89.249153,418.105927 114.889702,392.275818 
	C115.045403,392.003784 115.014000,392.043610 115.014000,392.043610 
z"/>
<path fill="#333333" opacity="1.000000" stroke="none" 
	d="
M115.063744,391.986237 
	C111.714546,394.208130 108.102028,396.155273 105.021561,398.737183 
	C91.173637,410.343781 77.536797,422.201996 63.704735,433.827789 
	C54.308010,441.725586 44.829350,449.539276 35.089184,457.001404 
	C33.551758,458.179260 29.869427,458.209595 28.169046,457.162476 
	C25.077534,455.258636 26.085066,452.193146 28.532927,450.103638 
	C34.212311,445.255737 40.133705,440.690887 45.802635,435.831238 
	C53.722954,429.041595 61.412724,421.981995 69.365166,415.231140 
	C79.350334,406.754608 89.440575,398.398438 99.618225,390.154236 
	C102.638359,387.707855 112.291252,388.729370 114.848961,391.690125 
	C115.014000,392.043610 115.045403,392.003784 115.063744,391.986237 
z"/>
<path fill="#333333" opacity="1.000000" stroke="none" 
	d="
M337.849884,505.634125 
	C336.093048,507.288391 334.176941,509.734497 332.704346,509.491577 
	C330.973389,509.206085 328.810425,506.827942 328.252563,504.938629 
	C325.484619,495.564636 323.208771,486.046112 320.713684,476.590607 
	C315.548615,457.017303 310.342682,437.454742 305.192139,417.877625 
	C304.714264,416.061218 304.511993,414.172302 303.984558,411.209015 
	C310.776947,415.564697 316.056091,418.549622 317.924927,426.629913 
	C323.718475,451.679199 330.727142,476.447266 337.239746,501.330902 
	C337.572418,502.602081 337.676361,503.933136 337.849884,505.634125 
z"/>
<path fill="#333333" opacity="1.000000" stroke="none" 
	d="
M487.001892,371.978546 
	C490.989868,373.740784 494.673523,375.279816 498.237518,377.058472 
	C501.179199,378.526550 503.661072,380.471710 502.938568,384.389099 
	C502.238983,388.182098 499.505188,389.699829 496.018951,388.055664 
	C477.997528,379.556366 459.998566,371.009583 441.985779,362.492035 
	C436.573853,359.932922 431.122406,357.456757 425.725250,354.867218 
	C419.152161,351.713531 418.954376,351.184662 421.034454,341.971436 
	C443.068268,352.008392 464.857025,361.933685 487.001892,371.978546 
z"/>
<path fill="#333333" opacity="1.000000" stroke="none" 
	d="
M312.862213,66.811554 
	C317.885345,47.653923 322.853699,28.904930 327.736511,10.133670 
	C328.651611,6.615779 329.971924,3.426739 334.283630,4.520709 
	C338.980469,5.712391 338.366882,9.609200 337.451569,13.091015 
	C330.956299,37.798424 324.415344,62.494038 317.769135,87.161125 
	C317.244690,89.107498 316.219604,91.705231 314.699371,92.394157 
	C312.878815,93.219200 310.130463,92.701103 308.098938,91.932320 
	C307.480377,91.698242 307.544617,88.631866 307.911774,87.001282 
	C309.403687,80.375717 311.134888,73.804031 312.862213,66.811554 
z"/>
<path fill="#333333" opacity="1.000000" stroke="none" 
	d="
M178.404358,19.565830 
	C177.565857,16.274015 176.285446,13.358383 176.355194,10.475413 
	C176.403931,8.460926 177.817520,5.740154 179.480408,4.672065 
	C182.178162,2.939276 184.331024,5.145729 185.167740,7.665396 
	C187.250824,13.938403 189.154388,20.281214 190.854050,26.669430 
	C195.841049,45.413174 200.701599,64.190613 205.581360,82.962730 
	C205.912506,84.236656 205.961075,85.581551 206.196121,86.883492 
	C206.621735,89.240967 208.136902,92.159271 204.202591,92.769447 
	C200.912460,93.279709 197.907288,93.495407 196.688019,88.696198 
	C190.852859,65.728279 184.626358,42.859791 178.404358,19.565830 
z"/>
<path fill="#333333" opacity="1.000000" stroke="none" 
	d="
M422.507080,307.565125 
	C431.875366,309.431366 440.934631,311.289886 449.886780,313.569031 
	C466.909882,317.903015 483.872284,322.475708 500.858215,326.955597 
	C502.298218,327.335388 503.804779,327.590607 505.142090,328.204803 
	C507.709015,329.383850 510.658203,330.549377 509.592773,334.300201 
	C508.528076,338.048584 505.634491,338.373474 502.405426,337.599976 
	C498.855927,336.749725 495.317505,335.849609 491.789368,334.914246 
	C470.002899,329.138336 448.218628,323.354187 426.438477,317.554474 
	C420.599274,315.999573 419.776245,314.068848 422.507080,307.565125 
z"/>
<path fill="#333333" opacity="1.000000" stroke="none" 
	d="
M382.999329,27.068027 
	C373.494110,47.734875 364.163239,68.068398 354.707062,88.343498 
	C353.925110,90.020096 352.513214,92.181877 351.005768,92.556610 
	C348.802887,93.104218 346.248291,92.237183 343.843628,91.973114 
	C344.239655,89.971565 344.259277,87.796753 345.088745,85.994705 
	C355.902435,62.501446 366.854950,39.072124 377.702454,15.594339 
	C379.192871,12.368562 381.140442,10.212557 384.957428,11.280854 
	C388.187958,12.185007 389.848206,14.231858 388.186676,17.606981 
	C386.654968,20.718403 384.834412,23.687641 382.999329,27.068027 
z"/>
<path fill="#333333" opacity="1.000000" stroke="none" 
	d="
M373.713379,466.331512 
	C378.153931,475.647949 382.414825,484.624573 386.761658,493.559418 
	C388.196045,496.507782 390.709747,499.434753 386.523071,502.099518 
	C383.107452,504.273468 379.271942,502.996246 377.231445,498.531158 
	C366.348114,474.715790 355.584778,450.845184 344.938324,426.923157 
	C344.246460,425.368561 344.572113,421.672485 344.942902,421.599365 
	C348.057495,420.984619 351.771240,419.677399 353.739532,423.632996 
	C357.361359,430.911621 360.805542,438.279846 364.249237,445.645569 
	C367.406342,452.398285 370.465088,459.196991 373.713379,466.331512 
z"/>
<path fill="#333333" opacity="1.000000" stroke="none" 
	d="
M162.668304,72.298309 
	C164.965836,77.488190 167.227478,82.291092 169.119125,87.235558 
	C169.722000,88.811401 169.342255,90.763184 169.412140,92.542938 
	C166.500885,92.051735 163.239609,92.195778 160.798782,90.850830 
	C159.110825,89.920738 158.475464,86.971779 157.506622,84.862091 
	C148.582108,65.428856 139.716568,45.968464 130.750626,26.554419 
	C129.503937,23.854982 127.340141,21.509180 126.473732,18.727787 
	C125.861435,16.762131 125.891541,13.463849 127.106995,12.306379 
	C129.364212,10.156854 132.854767,9.975501 134.976761,12.982965 
	C136.761826,15.512892 137.924805,18.499929 139.235275,21.343557 
	C147.007202,38.208241 154.741882,55.090096 162.668304,72.298309 
z"/>
<path fill="#333333" opacity="1.000000" stroke="none" 
	d="
M469.769958,476.270142 
	C450.096741,456.594788 430.676331,437.173157 411.253632,417.753784 
	C409.347565,415.848114 407.370911,414.366211 410.102692,411.205475 
	C412.923096,407.942261 414.698364,408.077942 417.608521,411.015381 
	C437.407074,430.999634 457.344025,450.846741 477.236176,470.738281 
	C479.738922,473.240936 482.991882,475.972900 479.465942,479.512360 
	C475.880981,483.111053 473.242950,479.619415 470.731018,477.227875 
	C470.489990,476.998383 470.258209,476.759186 469.769958,476.270142 
z"/>
<path fill="#333333" opacity="1.000000" stroke="none" 
	d="
M478.351501,456.777222 
	C470.038910,449.871429 461.955078,443.261658 453.973175,436.531036 
	C444.965637,428.935577 436.073273,421.203583 427.080383,413.590546 
	C424.176270,411.132050 420.940948,409.041748 418.199646,406.424316 
	C416.961426,405.242035 415.815491,403.111633 415.964142,401.537567 
	C416.162994,399.431213 417.659729,397.447418 418.599152,395.411011 
	C420.391998,396.421722 422.375732,397.198700 423.946655,398.481232 
	C433.964630,406.660309 443.923340,414.913025 453.840057,423.214874 
	C464.124237,431.824371 474.380066,440.468964 484.549500,449.213135 
	C486.621277,450.994568 489.045013,453.009369 486.752258,456.358032 
	C484.280396,459.968414 481.515533,459.038879 478.351501,456.777222 
z"/>
<path fill="#333333" opacity="1.000000" stroke="none" 
	d="
M478.572266,392.253784 
	C484.307098,395.660065 489.728943,398.868774 495.095367,402.167603 
	C497.830139,403.848694 500.131409,406.009613 497.936035,409.454407 
	C495.965271,412.546753 493.157532,412.485138 490.135773,410.710022 
	C470.843964,399.377289 451.532623,388.077759 432.218689,376.782745 
	C428.505249,374.611084 424.646393,372.669006 421.053009,370.317780 
	C418.573334,368.695251 418.444824,362.652161 420.815796,361.039673 
	C421.613251,360.497345 423.436401,360.702332 424.385284,361.258087 
	C437.966522,369.212524 451.440948,377.349487 465.028778,385.292480 
	C469.297699,387.788025 473.826477,389.839081 478.572266,392.253784 
z"/>
<path fill="#333333" opacity="1.000000" stroke="none" 
	d="
M420.602631,389.381683 
	C419.717316,385.594513 419.145203,381.991760 418.573059,378.389038 
	C419.136444,378.060394 419.699799,377.731781 420.263153,377.403168 
	C423.238220,379.246826 426.315613,380.945312 429.171112,382.958557 
	C443.548218,393.094818 457.842072,403.349121 472.219727,413.484558 
	C477.756653,417.387787 483.574036,420.905762 488.975769,424.980865 
	C490.750061,426.319427 492.383942,428.735718 492.731873,430.878387 
	C493.358337,434.736420 490.304169,436.755798 486.667694,435.136597 
	C484.116608,434.000671 481.727753,432.422852 479.428894,430.810760 
	C466.953705,422.062256 454.533722,413.235138 442.085297,404.448486 
	C435.038177,399.474396 427.972900,394.526062 420.602631,389.381683 
z"/>
<path fill="#343434" opacity="1.000000" stroke="none" 
	d="
M402.359039,18.399380 
	C404.658325,15.422066 407.611115,13.686809 410.052948,16.539410 
	C411.346191,18.050217 411.301453,21.945486 410.284607,23.974392 
	C406.422516,31.680525 401.996490,39.110710 397.635437,46.558655 
	C389.779053,59.976002 381.716736,73.273582 373.942963,86.738129 
	C370.107208,93.381859 368.402344,94.297684 359.948456,91.699814 
	C374.106598,67.217918 388.133453,42.963104 402.359039,18.399380 
z"/>
<path fill="#333333" opacity="1.000000" stroke="none" 
	d="
M437.249634,469.762634 
	C426.385803,457.257660 415.711548,445.059387 405.175323,432.743042 
	C401.859344,428.866882 398.913818,424.673798 395.815552,420.647583 
	C401.724030,415.400879 404.075836,415.546356 408.668701,421.030823 
	C424.610931,440.067902 440.599731,459.066010 456.535706,478.108337 
	C458.680145,480.670776 460.297974,483.439514 456.932556,486.317139 
	C453.427216,489.314423 451.079315,486.771790 449.032990,484.355591 
	C445.070282,479.676422 441.326843,474.811584 437.249634,469.762634 
z"/>
<path fill="#333333" opacity="1.000000" stroke="none" 
	d="
M342.836121,471.359863 
	C337.770172,458.006805 332.736633,445.052643 327.854370,432.041748 
	C326.496582,428.423431 325.586792,424.637054 324.420441,420.758057 
	C333.418213,420.286285 333.668915,420.805298 336.396606,428.269623 
	C339.806671,437.601288 344.073242,446.618652 347.526886,455.936005 
	C352.243469,468.660339 356.566376,481.531219 360.998077,494.359985 
	C361.796631,496.671509 362.868378,499.107971 362.764893,501.440186 
	C362.686829,503.199890 361.022339,506.224701 359.906372,506.298309 
	C358.112183,506.416718 355.273468,505.020905 354.491089,503.456970 
	C352.204712,498.886414 350.659332,493.936981 348.930695,489.097748 
	C346.870941,483.331665 344.922363,477.525879 342.836121,471.359863 
z"/>
<path fill="#333333" opacity="1.000000" stroke="none" 
	d="
M114.630188,23.418814 
	C127.744415,46.224007 140.666763,68.717255 153.594025,91.219032 
	C147.524368,94.536644 143.483841,93.400543 140.652542,88.471252 
	C133.721649,76.404533 126.582268,64.457787 119.601784,52.419281 
	C114.026482,42.804138 108.550507,33.131290 103.054741,23.470232 
	C101.433037,20.619427 101.653473,17.926426 104.504494,16.069471 
	C107.663208,14.012100 109.821732,15.904057 111.558388,18.445379 
	C112.587799,19.951756 113.482841,21.549955 114.630188,23.418814 
z"/>
<path fill="#333333" opacity="1.000000" stroke="none" 
	d="
M371.166443,422.549133 
	C376.690491,431.642853 382.056061,440.388519 387.209198,449.257629 
	C394.952209,462.584320 402.485687,476.032898 410.247223,489.348663 
	C412.158417,492.627533 413.053284,495.733643 409.366943,497.949615 
	C405.301392,500.393524 403.320801,497.133881 401.638733,494.153625 
	C396.438080,484.939056 391.430573,475.613708 386.128784,466.458405 
	C378.241302,452.837982 370.158386,439.330841 362.186707,425.759003 
	C361.560883,424.693604 361.154297,423.499390 359.887054,420.672363 
	C364.480469,421.332245 367.696686,421.794312 371.166443,422.549133 
z"/>
<path fill="#333333" opacity="1.000000" stroke="none" 
	d="
M460.857422,338.122803 
	C474.699768,343.268433 488.182007,348.271484 501.610291,353.415497 
	C504.586456,354.555573 507.952576,356.173950 506.384216,360.217224 
	C504.895691,364.054749 501.068420,363.537720 498.175537,362.536224 
	C486.751953,358.581543 475.454285,354.263031 464.112000,350.073853 
	C451.241211,345.320190 438.382904,340.532440 425.495422,335.824554 
	C422.526642,334.740021 420.867035,333.124359 420.974701,329.643005 
	C421.096802,325.696625 422.522217,324.588318 426.246582,325.926819 
	C437.635956,330.020111 449.064514,334.004395 460.857422,338.122803 
z"/>
<path fill="#333333" opacity="1.000000" stroke="none" 
	d="
M171.004089,41.881084 
	C176.699417,57.293941 182.389313,72.300087 187.845764,87.390648 
	C188.377975,88.862610 187.470932,90.854965 187.231964,92.605766 
	C184.555435,91.966347 181.323792,92.024048 179.374283,90.471642 
	C177.752670,89.180336 177.709244,85.970261 176.844208,83.655914 
	C168.439590,61.170208 160.009293,38.694103 151.584564,16.215910 
	C151.469086,15.907822 151.235947,15.613583 151.218369,15.303760 
	C151.051132,12.358024 150.155396,8.888733 153.844330,7.560563 
	C157.606918,6.205883 159.341599,9.120909 160.405579,12.010891 
	C164.011169,21.804459 167.438217,31.663755 171.004089,41.881084 
z"/>
<path fill="#333333" opacity="1.000000" stroke="none" 
	d="
M346.285889,31.437313 
	C348.475983,25.633846 350.480896,20.181616 352.567139,14.760674 
	C353.279083,12.910743 353.847595,10.818761 355.126404,9.431930 
	C356.182495,8.286585 358.387329,7.241153 359.717712,7.581177 
	C361.016998,7.913239 362.635620,10.008075 362.722290,11.414795 
	C362.879089,13.960761 362.359009,16.697495 361.495697,19.132711 
	C356.400360,33.504925 351.230103,47.852757 345.872009,62.128819 
	C342.434448,71.287827 338.496918,80.259041 335.051727,89.415367 
	C333.501709,93.534821 330.393066,93.378136 327.351135,92.561386 
	C326.526703,92.340027 325.630188,89.281952 326.068573,87.956429 
	C329.400513,77.882034 333.028168,67.904640 336.618591,57.916756 
	C339.752777,49.198086 342.958496,40.505131 346.285889,31.437313 
z"/>
<path fill="#333333" opacity="1.000000" stroke="none" 
	d="
M413.806305,473.185120 
	C401.968292,456.165039 390.357605,439.424713 378.721802,422.648254 
	C384.643738,419.403198 389.227173,420.372009 392.525879,425.152679 
	C404.009094,441.794800 415.504608,458.428497 427.042969,475.032379 
	C429.399811,478.423950 432.092834,481.585449 434.384857,485.017303 
	C435.918579,487.313690 436.972260,490.091980 433.967224,492.042053 
	C431.024506,493.951630 428.027893,493.143158 425.991669,490.479858 
	C422.587433,486.027191 419.498505,481.333313 416.281586,476.737640 
	C415.522614,475.653442 414.782440,474.556152 413.806305,473.185120 
z"/>
<path fill="#333333" opacity="1.000000" stroke="none" 
	d="
M408.230469,49.222420 
	C414.246735,40.695309 420.155182,32.526810 425.779877,24.167355 
	C427.990906,20.881252 430.796844,19.954821 433.754242,21.984644 
	C436.666199,23.983332 436.244873,26.826120 434.140411,29.782019 
	C419.923279,49.750950 405.812775,69.796104 391.737793,89.865685 
	C388.212250,94.892746 383.628998,92.527626 377.626373,92.663101 
	C388.313538,77.482063 398.161285,63.493336 408.230469,49.222420 
z"/>
<path fill="#333333" opacity="1.000000" stroke="none" 
	d="
M104.000076,63.997261 
	C96.102272,52.726360 88.289337,41.829590 80.694016,30.783190 
	C78.915092,28.195978 76.252281,25.134987 79.940147,21.994183 
	C82.544769,19.775930 86.455101,21.115219 89.139885,25.013618 
	C102.209427,43.991043 115.242363,62.993683 128.317719,81.967094 
	C130.376785,84.954971 132.586838,87.838791 134.712921,90.751297 
	C130.834152,94.261368 125.080086,93.831306 122.288727,89.910706 
	C116.225624,81.394814 110.203323,72.849869 104.000076,63.997261 
z"/>
<path fill="#333333" opacity="1.000000" stroke="none" 
	d="
M398.890015,89.625992 
	C408.393921,78.385040 417.751404,67.459892 426.975281,56.423092 
	C433.784729,48.275265 440.483551,40.032639 447.109680,31.734791 
	C451.302612,26.483934 454.288635,25.056093 457.016266,27.829088 
	C461.272980,32.156574 457.171600,34.852921 454.707764,37.838261 
	C446.900085,47.298626 439.150757,56.807217 431.335083,66.260948 
	C424.796631,74.169785 418.185669,82.018600 411.629974,89.913246 
	C409.399902,92.598824 402.402557,94.286285 399.215271,92.613068 
	C398.704010,92.344673 398.846161,90.831573 398.890015,89.625992 
z"/>
<path fill="#333333" opacity="1.000000" stroke="none" 
	d="
M105.943512,92.641830 
	C102.101532,88.545341 98.603096,84.598839 95.196976,80.574203 
	C82.680466,65.784805 70.205490,50.960266 57.690029,36.169975 
	C54.291748,32.154022 54.395008,29.178581 58.014366,27.054363 
	C61.553375,24.977303 63.329388,27.787785 65.041199,29.770592 
	C69.591042,35.040714 73.750633,40.646889 78.278442,45.937099 
	C85.052063,53.851276 92.116440,61.517433 98.853996,69.461388 
	C104.901772,76.592049 110.675491,83.955154 116.570107,91.215721 
	C116.342621,91.729134 116.115128,92.242554 115.887634,92.755966 
	C112.701561,92.755966 109.515480,92.755966 105.943512,92.641830 
z"/>
<path fill="#333333" opacity="1.000000" stroke="none" 
	d="
M5.832191,329.763672 
	C13.028800,327.358063 19.900883,325.024384 26.893005,323.134888 
	C42.265343,318.980804 57.697025,315.046173 73.108620,311.037872 
	C74.704102,310.622894 76.311768,310.182587 77.941681,309.989594 
	C80.202820,309.721832 83.196869,308.008057 83.815544,312.089935 
	C84.338890,315.542725 84.255760,318.612122 79.753853,319.789642 
	C57.284557,325.666595 34.881279,331.797333 12.387552,337.577179 
	C10.311721,338.110565 7.215651,337.449341 5.630164,336.112823 
	C4.618879,335.260345 5.519007,332.140411 5.832191,329.763672 
z"/>
<path fill="#333333" opacity="1.000000" stroke="none" 
	d="
M73.998764,390.993042 
	C75.131905,390.251984 76.042412,389.772064 76.741318,389.078857 
	C81.745644,384.115479 87.134399,384.929291 93.789246,388.451569 
	C90.301132,391.169250 87.312790,393.751343 84.077728,395.974426 
	C69.443298,406.030853 54.706238,415.938049 40.083157,426.010803 
	C36.417149,428.536041 32.973228,431.399384 29.544479,434.248474 
	C26.633562,436.667236 23.681499,436.455780 21.821903,433.551208 
	C20.050568,430.784546 20.908037,428.013184 23.971312,425.893524 
	C40.593796,414.391510 57.119282,402.749359 73.998764,390.993042 
z"/>
<path fill="#333333" opacity="1.000000" stroke="none" 
	d="
M76.749649,83.250793 
	C63.423580,69.924316 50.344074,56.851421 37.277046,43.766068 
	C36.102005,42.589375 34.353962,41.479134 34.038326,40.075726 
	C33.627365,38.248455 33.757462,35.624802 34.840488,34.356083 
	C35.662640,33.392967 38.383396,33.734421 40.168129,34.035717 
	C41.134537,34.198864 41.943455,35.459747 42.766621,36.282276 
	C59.972603,53.474918 77.175941,70.670212 94.357117,87.887634 
	C95.464996,88.997849 96.389450,90.291115 97.981621,92.195999 
	C91.722771,93.307144 86.677742,94.251831 82.620781,89.181313 
	C80.965797,87.112854 78.886063,85.384247 76.749649,83.250793 
z"/>
<path fill="#333333" opacity="1.000000" stroke="none" 
	d="
M429.749268,77.749237 
	C443.193756,64.305664 456.387543,51.111412 469.584198,37.920025 
	C470.644501,36.860142 471.564178,35.259106 472.831390,34.896927 
	C474.938629,34.294674 477.274750,34.493271 479.514496,34.354588 
	C479.473724,36.579407 479.727905,38.867413 479.270416,41.002960 
	C479.033936,42.106907 477.546051,42.951847 476.603882,43.894173 
	C461.879669,58.620880 446.946960,73.147751 432.544342,88.182457 
	C427.923218,93.006432 423.134338,93.649384 415.457611,92.145874 
	C420.643250,86.921494 425.071289,82.460388 429.749268,77.749237 
z"/>
<path fill="#343434" opacity="1.000000" stroke="none" 
	d="
M51.338890,395.473816 
	C43.457294,399.802917 35.905872,403.954681 28.341139,408.082092 
	C26.299515,409.196045 24.305407,410.800812 22.127556,411.139709 
	C20.223846,411.435944 16.794081,410.766571 16.360987,409.634949 
	C15.682622,407.862518 16.284983,404.743744 17.575653,403.281830 
	C19.349928,401.272186 22.276117,400.282257 24.702793,398.845367 
	C38.358818,390.759125 51.999554,382.646851 65.685310,374.611237 
	C67.378464,373.617126 69.308350,373.026215 71.298645,372.175781 
	C73.097290,374.309082 74.789993,376.316711 77.176598,379.147369 
	C68.529427,384.617798 60.096745,389.952576 51.338890,395.473816 
z"/>
<path fill="#333333" opacity="1.000000" stroke="none" 
	d="
M24.892235,348.936768 
	C40.291000,343.241364 55.311310,337.647339 70.450851,332.008911 
	C71.420181,338.929840 68.487534,343.621613 62.337040,345.856415 
	C47.829884,351.127594 33.347385,356.467438 18.811535,361.658020 
	C16.672863,362.421692 14.240479,363.018890 12.050371,362.767273 
	C10.408231,362.578583 7.789062,361.026611 7.663668,359.860229 
	C7.484051,358.189545 8.729947,355.409424 10.160343,354.698212 
	C14.748639,352.416962 19.701553,350.869019 24.892235,348.936768 
z"/>
<path fill="#333333" opacity="1.000000" stroke="none" 
	d="
M28.621143,371.675781 
	C41.403816,365.695892 53.852268,359.891785 66.260109,354.106598 
	C70.392845,361.776611 69.417953,363.986755 62.547665,367.101257 
	C48.224056,373.594604 34.064827,380.451233 19.855036,387.194397 
	C16.938520,388.578461 13.898749,390.405975 11.839639,386.287781 
	C9.931831,382.472168 11.193778,379.640442 15.192928,377.909271 
	C19.604950,375.999420 23.926159,373.879822 28.621143,371.675781 
z"/>
<path fill="#333333" opacity="1.000000" stroke="none" 
	d="
M481.932495,191.872009 
	C471.670746,194.590012 461.810303,197.212204 451.313599,200.003601 
	C453.067291,192.345474 455.378693,187.624084 463.758057,186.241959 
	C475.979065,184.226166 487.852386,180.105942 499.878571,176.900360 
	C501.150757,176.561249 502.442047,176.228561 503.745605,176.085342 
	C506.801910,175.749603 509.607666,176.976608 509.427551,180.065735 
	C509.309723,182.086075 507.210083,185.115158 505.358795,185.713211 
	C497.817902,188.149307 490.030396,189.822083 481.932495,191.872009 
z"/>
<path fill="#333333" opacity="1.000000" stroke="none" 
	d="
M458.284912,86.288223 
	C456.283295,88.265953 454.617981,90.089142 452.779572,91.716888 
	C446.910126,96.913750 445.080200,97.056244 437.188721,92.781197 
	C442.306763,87.917068 447.074371,82.966347 452.282104,78.532562 
	C460.605835,71.445915 469.221741,64.702400 477.714417,57.814213 
	C478.358612,57.291721 479.016235,56.318256 479.648804,56.333515 
	C481.873047,56.387146 484.567444,56.085365 486.197784,57.206448 
	C488.739960,58.954529 487.932495,61.717175 485.779633,63.551102 
	C479.847961,68.604004 473.781158,73.498268 467.766418,78.453598 
	C464.693085,80.985619 461.616852,83.514122 458.284912,86.288223 
z"/>
<path fill="#333333" opacity="1.000000" stroke="none" 
	d="
M39.205654,72.781204 
	C35.598392,69.823906 32.189724,67.179382 28.957790,64.334114 
	C26.723907,62.367489 25.130396,60.112354 27.621559,57.097378 
	C30.050154,54.158115 32.746250,54.885628 35.065674,56.801464 
	C45.911095,65.759743 56.650562,74.847000 67.377998,83.946983 
	C70.586540,86.668770 73.633476,89.581062 76.920265,92.556152 
	C68.960495,97.305618 65.811600,96.592659 58.436081,89.744255 
	C52.261162,84.010651 45.809029,78.575592 39.205654,72.781204 
z"/>
<path fill="#333333" opacity="1.000000" stroke="none" 
	d="
M474.130981,160.015778 
	C481.201752,157.474777 487.876801,154.982925 494.596405,152.617844 
	C496.600372,151.912491 498.836182,150.909393 500.772034,151.226288 
	C502.861542,151.568314 504.724030,153.296997 506.685547,154.420776 
	C505.529846,156.234970 504.772552,158.681427 503.127014,159.718323 
	C500.518799,161.361801 497.314911,162.058273 494.365753,163.162720 
	C484.290863,166.935730 474.260529,170.836380 464.105530,174.379761 
	C462.128571,175.069580 457.773010,174.630661 457.725433,174.278442 
	C457.269928,170.908142 456.965729,167.070831 460.831757,165.274414 
	C465.031250,163.323044 469.436646,161.814880 474.130981,160.015778 
z"/>
<path fill="#333333" opacity="1.000000" stroke="none" 
	d="
M33.612648,192.306244 
	C25.358896,190.143707 17.469025,188.215668 9.664736,185.987823 
	C6.643920,185.125504 3.208311,183.859695 4.494560,179.543488 
	C5.708540,175.469803 8.927473,175.746552 12.254450,176.591461 
	C23.516273,179.451477 34.793247,182.251831 46.055164,185.111481 
	C49.876831,186.081879 51.384937,189.141464 51.330254,196.644424 
	C45.415775,195.202148 39.713242,193.811569 33.612648,192.306244 
z"/>
<path fill="#333333" opacity="1.000000" stroke="none" 
	d="
M459.845459,152.272720 
	C459.525879,146.596451 460.642426,142.546951 466.454895,140.098053 
	C476.228241,135.980377 485.576996,130.863754 495.208649,126.392021 
	C496.781586,125.661774 499.526459,125.303215 500.591278,126.170517 
	C501.952820,127.279510 502.571228,129.779099 502.702148,131.733505 
	C502.775452,132.828278 501.473572,134.565796 500.353607,135.105576 
	C487.624481,141.240768 474.817841,147.215744 461.993805,153.151199 
	C461.481506,153.388336 460.589508,152.805176 459.845459,152.272720 
z"/>
<path fill="#333333" opacity="1.000000" stroke="none" 
	d="
M41.354008,137.690231 
	C50.878380,142.277969 51.319695,143.045303 48.922386,151.532166 
	C44.672409,149.729248 40.461899,147.995667 36.294914,146.163132 
	C29.911148,143.355743 23.541670,140.514389 17.202438,137.608246 
	C15.707050,136.922714 14.228586,136.076492 12.964955,135.034286 
	C10.104337,132.674896 10.153831,129.371826 12.306544,127.109352 
	C13.463755,125.893158 16.941833,125.674171 18.718330,126.468575 
	C26.285580,129.852417 33.608490,133.782654 41.354008,137.690231 
z"/>
<path fill="#333333" opacity="1.000000" stroke="none" 
	d="
M16.886990,162.101685 
	C14.802456,161.375412 12.700702,161.166855 11.479382,160.020401 
	C9.771253,158.416946 8.719646,156.114105 7.387153,154.110504 
	C9.592110,153.095642 11.946373,151.010193 13.970430,151.292450 
	C17.981932,151.851913 21.833015,153.657791 25.710953,155.057770 
	C32.562695,157.531326 39.389912,160.073227 46.217354,162.613495 
	C49.592793,163.869385 51.518150,169.538788 49.336716,172.361465 
	C48.825825,173.022522 47.002346,173.247513 46.059391,172.907028 
	C36.427673,169.429153 26.853140,165.792908 16.886990,162.101685 
z"/>
<path fill="#343434" opacity="1.000000" stroke="none" 
	d="
M484.093994,93.161926 
	C477.124023,97.689308 470.427643,101.988426 463.864258,106.481819 
	C459.912659,109.187172 458.307739,106.365311 456.342651,103.794380 
	C453.929657,100.637497 456.377289,99.461052 458.465820,98.003471 
	C467.151794,91.941559 475.884552,85.942696 484.451447,79.716118 
	C487.503174,77.498077 490.337158,77.556915 492.185547,80.459778 
	C493.947571,83.226997 493.159058,86.094658 490.025879,88.126831 
	C487.967468,89.461937 486.278168,91.366158 484.093994,93.161926 
z"/>
<path fill="#333333" opacity="1.000000" stroke="none" 
	d="
M50.835518,95.209595 
	C53.721935,97.050621 56.323181,98.668251 58.707317,100.150864 
	C58.447144,101.249634 58.456497,101.621361 58.286121,101.869865 
	C53.354897,109.062263 53.445999,108.929878 46.232361,103.729462 
	C39.260677,98.703484 31.959267,94.131439 25.045973,89.030289 
	C23.261894,87.713867 21.623930,85.286575 21.268965,83.145721 
	C20.628468,79.282768 23.673109,77.254189 27.312563,78.854332 
	C29.716612,79.911301 31.958067,81.419357 34.109505,82.953743 
	C39.638176,86.896713 45.076134,90.966866 50.835518,95.209595 
z"/>
<path fill="#333333" opacity="1.000000" stroke="none" 
	d="
M463.529541,129.206360 
	C460.593628,123.093567 461.575897,119.727135 466.771179,116.770569 
	C474.283325,112.495514 481.736572,108.114616 489.303528,103.939468 
	C492.165497,102.360344 495.549225,100.194641 497.952545,104.430145 
	C500.413025,108.766327 497.096466,110.763069 493.917206,112.529259 
	C483.912903,118.086975 473.889618,123.610542 463.529541,129.206360 
z"/>
<path fill="#333333" opacity="1.000000" stroke="none" 
	d="
M32.934235,120.155907 
	C28.032665,117.304901 23.452471,114.624405 18.931904,111.846863 
	C16.204380,110.170998 13.877093,108.036125 16.046165,104.577385 
	C17.993605,101.472061 20.796455,101.509460 23.829605,103.264008 
	C32.716827,108.404869 41.645527,113.474030 50.490646,118.532776 
	C49.093224,129.352127 49.114342,129.317764 39.874222,123.638893 
	C37.780315,122.352005 35.483925,121.394592 32.934235,120.155907 
z"/>
</svg>